M48
;DRILL file {Pcbnew (2013-03-19 BZR 4004)-stable} date 13/06/2016 14:56:17
;FORMAT={-:-/ absolute / metric / decimal}
FMAT,2
METRIC,TZ
T1C0.635
T2C0.813
T3C1.016
%
G90
G05
M71
T1
X3.81Y-8.89
X5.08Y-10.16
X12.7Y-8.89
X26.67Y-3.81
X30.48Y-2.54
X30.48Y-10.16
X36.83Y-19.05
X38.1Y-12.7
X38.1Y-17.78
X40.64Y-10.16
X41.91Y-3.81
X45.72Y-5.08
X48.26Y-3.81
X52.07Y-20.32
X55.88Y-8.89
X60.96Y-10.16
X63.5Y-10.16
X63.5Y-12.7
X67.31Y-20.32
X69.85Y-19.05
X81.28Y-10.16
X81.28Y-17.78
X82.55Y-3.81
X83.82Y-11.43
X85.09Y-12.7
X88.9Y-6.35
T2
X2.54Y-5.08
X5.08Y-5.08
X5.08Y-10.16
X5.08Y-12.7
X7.62Y-5.08
X10.16Y-5.08
X10.16Y-10.16
X10.16Y-12.7
X10.16Y-15.24
X10.16Y-17.78
X15.24Y-5.08
X17.78Y-5.08
X17.78Y-10.16
X17.78Y-12.7
X20.32Y-21.59
X22.86Y-7.62
X22.86Y-15.24
X25.4Y-7.62
X25.4Y-15.24
X27.94Y-7.62
X27.94Y-15.24
X30.48Y-7.62
X30.48Y-15.24
X33.02Y-7.62
X33.02Y-15.24
X35.56Y-7.62
X35.56Y-15.24
X38.1Y-7.62
X38.1Y-15.24
X43.18Y-7.62
X43.18Y-15.24
X48.26Y-7.62
X48.26Y-15.24
X50.8Y-7.62
X50.8Y-15.24
X53.34Y-7.62
X53.34Y-15.24
X55.88Y-7.62
X55.88Y-15.24
X58.42Y-5.08
X58.42Y-7.62
X58.42Y-15.24
X60.96Y-5.08
X60.96Y-7.62
X60.96Y-15.24
X63.5Y-7.62
X63.5Y-15.24
X71.12Y-7.62
X71.12Y-15.24
X73.66Y-7.62
X73.66Y-15.24
X76.2Y-7.62
X76.2Y-15.24
X78.74Y-7.62
X78.74Y-15.24
X81.28Y-7.62
X81.28Y-15.24
X83.82Y-7.62
X83.82Y-15.24
X86.36Y-7.62
X86.36Y-15.24
T3
X2.54Y-21.59
X5.08Y-21.59
X7.62Y-21.59
X10.16Y-21.59
X12.7Y-21.59
X15.24Y-21.59
X17.78Y-21.59
X22.86Y-21.59
X25.4Y-21.59
X27.94Y-21.59
X30.48Y-21.59
X33.02Y-21.59
X35.56Y-21.59
X38.1Y-21.59
X40.64Y-21.59
X43.18Y-21.59
X45.72Y-21.59
X48.26Y-21.59
X50.8Y-21.59
X53.34Y-21.59
X55.88Y-21.59
X58.42Y-21.59
X60.96Y-21.59
X63.5Y-21.59
X66.04Y-21.59
X68.58Y-21.59
X71.12Y-21.59
X73.66Y-21.59
X76.2Y-21.59
X78.74Y-21.59
X81.28Y-21.59
X83.82Y-21.59
X86.36Y-21.59
X88.9Y-21.59
X91.44Y-11.43
X91.44Y-21.59
X93.98Y-8.89
X93.98Y-11.43
X93.98Y-13.97
X93.98Y-21.59
X96.52Y-8.89
X96.52Y-11.43
X96.52Y-13.97
X96.52Y-21.59
X99.06Y-8.89
X99.06Y-11.43
X99.06Y-13.97
X99.06Y-21.59
X101.6Y-8.89
X101.6Y-11.43
X101.6Y-13.97
X101.6Y-21.59
T0
M30
