M48
;DRILL file {Pcbnew (2013-03-19 BZR 4004)-stable} date 13/06/2016 15:28:01
;FORMAT={-:-/ absolute / inch / decimal}
FMAT,2
INCH,TZ
T1C0.025
T2C0.032
T3C0.032
T4C0.040
%
G90
G05
M72
T1
X0.15Y-0.35
X0.2Y-0.4
X0.5Y-0.35
X1.05Y-0.15
X1.2Y-0.1
X1.2Y-0.4
X1.45Y-0.75
X1.5Y-0.5
X1.5Y-0.7
X1.6Y-0.4
X1.65Y-0.15
X1.8Y-0.2
X1.9Y-0.15
X2.05Y-0.8
X2.2Y-0.35
X2.4Y-0.4
X2.5Y-0.4
X2.5Y-0.5
X2.65Y-0.8
X2.75Y-0.75
X3.2Y-0.4
X3.2Y-0.7
X3.25Y-0.15
X3.3Y-0.45
X3.35Y-0.5
X3.5Y-0.25
T2
X0.1Y-0.2
X0.2Y-0.2
X0.2Y-0.4
X0.2Y-0.5
X0.3Y-0.2
X0.4Y-0.2
X0.4Y-0.4
X0.4Y-0.5
X0.4Y-0.6
X0.4Y-0.7
X0.6Y-0.2
X0.7Y-0.2
X0.7Y-0.4
X0.7Y-0.5
X0.8Y-0.85
X1.7Y-0.3
X1.7Y-0.6
X1.9Y-0.3
X1.9Y-0.6
X2.Y-0.3
X2.Y-0.6
X2.1Y-0.3
X2.1Y-0.6
X2.2Y-0.3
X2.2Y-0.6
X2.3Y-0.2
X2.3Y-0.3
X2.3Y-0.6
X2.4Y-0.2
X2.4Y-0.3
X2.4Y-0.6
X2.5Y-0.3
X2.5Y-0.6
X2.8Y-0.3
X2.8Y-0.6
X2.9Y-0.3
X2.9Y-0.6
X3.Y-0.3
X3.Y-0.6
X3.1Y-0.3
X3.1Y-0.6
X3.2Y-0.3
X3.2Y-0.6
X3.3Y-0.3
X3.3Y-0.6
X3.4Y-0.3
X3.4Y-0.6
T3
X0.9Y-0.3
X0.9Y-0.6
X1.Y-0.3
X1.Y-0.6
X1.1Y-0.3
X1.1Y-0.6
X1.2Y-0.3
X1.2Y-0.6
X1.3Y-0.3
X1.3Y-0.6
X1.4Y-0.3
X1.4Y-0.6
X1.5Y-0.3
X1.5Y-0.6
T4
X0.1Y-0.85
X0.2Y-0.85
X0.3Y-0.85
X0.4Y-0.85
X0.5Y-0.85
X0.6Y-0.85
X0.7Y-0.85
X0.9Y-0.85
X1.Y-0.85
X1.1Y-0.85
X1.2Y-0.85
X1.3Y-0.85
X1.4Y-0.85
X1.5Y-0.85
X1.6Y-0.85
X1.7Y-0.85
X1.8Y-0.85
X1.9Y-0.85
X2.Y-0.85
X2.1Y-0.85
X2.2Y-0.85
X2.3Y-0.85
X2.4Y-0.85
X2.5Y-0.85
X2.6Y-0.85
X2.7Y-0.85
X2.8Y-0.85
X2.9Y-0.85
X3.Y-0.85
X3.1Y-0.85
X3.2Y-0.85
X3.3Y-0.85
X3.4Y-0.85
X3.5Y-0.85
X3.6Y-0.45
X3.6Y-0.85
X3.7Y-0.35
X3.7Y-0.45
X3.7Y-0.55
X3.7Y-0.85
X3.8Y-0.35
X3.8Y-0.45
X3.8Y-0.55
X3.8Y-0.85
X3.9Y-0.35
X3.9Y-0.45
X3.9Y-0.55
X3.9Y-0.85
X4.Y-0.35
X4.Y-0.45
X4.Y-0.55
X4.Y-0.85
T0
M30
