G04 (created by PCBNEW (2013-03-19 BZR 4004)-stable) date 13/06/2016 15:20:47*
%MOIN*%
G04 Gerber Fmt 3.4, Leading zero omitted, Abs format*
%FSLAX34Y34*%
G01*
G70*
G90*
G04 APERTURE LIST*
%ADD10C,0.006*%
%ADD11R,0.06X0.06*%
%ADD12C,0.06*%
%ADD13C,0.055*%
%ADD14R,0.055X0.055*%
%ADD15C,0.066*%
%ADD16C,0.035*%
%ADD17C,0.01*%
G04 APERTURE END LIST*
G54D10*
G54D11*
X1000Y-8500D03*
G54D12*
X2000Y-8500D03*
X3000Y-8500D03*
X4000Y-8500D03*
X5000Y-8500D03*
X6000Y-8500D03*
X7000Y-8500D03*
G54D13*
X8000Y-8500D03*
G54D12*
X9000Y-8500D03*
X10000Y-8500D03*
X11000Y-8500D03*
X12000Y-8500D03*
X13000Y-8500D03*
X14000Y-8500D03*
X15000Y-8500D03*
X16000Y-8500D03*
X17000Y-8500D03*
X18000Y-8500D03*
X19000Y-8500D03*
X20000Y-8500D03*
X21000Y-8500D03*
X22000Y-8500D03*
X23000Y-8500D03*
X25000Y-8500D03*
X26000Y-8500D03*
X27000Y-8500D03*
X28000Y-8500D03*
X29000Y-8500D03*
X30000Y-8500D03*
X31000Y-8500D03*
X32000Y-8500D03*
X33000Y-8500D03*
X34000Y-8500D03*
X35000Y-8500D03*
X36000Y-8500D03*
X37000Y-8500D03*
X38000Y-8500D03*
X39000Y-8500D03*
X40000Y-8500D03*
X24000Y-8500D03*
G54D14*
X4000Y-7000D03*
G54D13*
X4000Y-6000D03*
G54D14*
X28000Y-6000D03*
G54D13*
X29000Y-6000D03*
X30000Y-6000D03*
X31000Y-6000D03*
X32000Y-6000D03*
X33000Y-6000D03*
X34000Y-6000D03*
X34000Y-3000D03*
X33000Y-3000D03*
X32000Y-3000D03*
X31000Y-3000D03*
X30000Y-3000D03*
X29000Y-3000D03*
X28000Y-3000D03*
G54D14*
X9000Y-6000D03*
G54D13*
X10000Y-6000D03*
X11000Y-6000D03*
X12000Y-6000D03*
X13000Y-6000D03*
X14000Y-6000D03*
X15000Y-6000D03*
X15000Y-3000D03*
X14000Y-3000D03*
X13000Y-3000D03*
X12000Y-3000D03*
X11000Y-3000D03*
X10000Y-3000D03*
X9000Y-3000D03*
G54D14*
X19000Y-6000D03*
G54D13*
X20000Y-6000D03*
X21000Y-6000D03*
X22000Y-6000D03*
X23000Y-6000D03*
X24000Y-6000D03*
X25000Y-6000D03*
X25000Y-3000D03*
X24000Y-3000D03*
X23000Y-3000D03*
X22000Y-3000D03*
X21000Y-3000D03*
X20000Y-3000D03*
X19000Y-3000D03*
G54D15*
X1000Y-2000D03*
X2000Y-2000D03*
X3000Y-2000D03*
X4000Y-2000D03*
X6000Y-2000D03*
X7000Y-2000D03*
G54D14*
X17000Y-6000D03*
G54D13*
X17000Y-3000D03*
X23000Y-2000D03*
X24000Y-2000D03*
X2000Y-4000D03*
X2000Y-5000D03*
X4000Y-4000D03*
X4000Y-5000D03*
X7000Y-4000D03*
X7000Y-5000D03*
G54D11*
X40000Y-3500D03*
G54D12*
X39000Y-3500D03*
X38000Y-3500D03*
X37000Y-3500D03*
G54D11*
X37000Y-5500D03*
G54D12*
X38000Y-5500D03*
X39000Y-5500D03*
X40000Y-5500D03*
G54D11*
X37000Y-4500D03*
G54D12*
X38000Y-4500D03*
X39000Y-4500D03*
X40000Y-4500D03*
G54D11*
X36000Y-4500D03*
G54D16*
X26500Y-8000D03*
X20500Y-8000D03*
X1500Y-3500D03*
X5000Y-3500D03*
X22000Y-3500D03*
X33500Y-5000D03*
X25000Y-5000D03*
X15000Y-5000D03*
X25000Y-4000D03*
X32000Y-4000D03*
X32500Y-1500D03*
X12000Y-1000D03*
X12000Y-4000D03*
X33000Y-4500D03*
X18000Y-2000D03*
X2000Y-4000D03*
X35000Y-2500D03*
X16000Y-4000D03*
X24000Y-4000D03*
X27500Y-7500D03*
X14500Y-7500D03*
X32000Y-7000D03*
X15000Y-7000D03*
X10500Y-1500D03*
X16500Y-1500D03*
X19000Y-1500D03*
G54D17*
X24500Y-7000D02*
X24000Y-6500D01*
X24000Y-6500D02*
X23500Y-6500D01*
X26000Y-8500D02*
X24500Y-7000D01*
X23500Y-6500D02*
X23000Y-6000D01*
X22000Y-6000D02*
X24000Y-8000D01*
X24000Y-8000D02*
X24000Y-8500D01*
X28000Y-6000D02*
X27500Y-6000D01*
X26500Y-7000D02*
X26500Y-8000D01*
X27500Y-6000D02*
X26500Y-7000D01*
X19500Y-7000D02*
X19500Y-3500D01*
X20000Y-3000D02*
X19500Y-3500D01*
X20500Y-8000D02*
X19500Y-7000D01*
X12000Y-8500D02*
X12000Y-7000D01*
X12000Y-7000D02*
X13000Y-6000D01*
X11000Y-8500D02*
X11000Y-7000D01*
X11000Y-7000D02*
X12000Y-6000D01*
X11000Y-7000D02*
X12000Y-6000D01*
X10000Y-8500D02*
X10000Y-6000D01*
X9000Y-6000D02*
X9000Y-8500D01*
X37000Y-4500D02*
X36500Y-5000D01*
X36500Y-8000D02*
X37000Y-8500D01*
X36500Y-5000D02*
X36500Y-8000D01*
X38000Y-4500D02*
X37500Y-5000D01*
X37500Y-8000D02*
X38000Y-8500D01*
X37500Y-5000D02*
X37500Y-8000D01*
X39000Y-4500D02*
X38500Y-5000D01*
X38500Y-8000D02*
X39000Y-8500D01*
X38500Y-5000D02*
X38500Y-8000D01*
X40000Y-4500D02*
X39500Y-5000D01*
X39500Y-8000D02*
X40000Y-8500D01*
X39500Y-5000D02*
X39500Y-8000D01*
X3000Y-2000D02*
X3000Y-5000D01*
X3000Y-5000D02*
X4000Y-6000D01*
X17000Y-6000D02*
X17500Y-6000D01*
X17500Y-6000D02*
X20000Y-8500D01*
X1000Y-2000D02*
X1000Y-3000D01*
X1000Y-3000D02*
X1500Y-3500D01*
X4000Y-7000D02*
X4500Y-7000D01*
X5000Y-6500D02*
X5000Y-3500D01*
X4500Y-7000D02*
X5000Y-6500D01*
X22000Y-3500D02*
X22000Y-3000D01*
X17000Y-8500D02*
X17000Y-8000D01*
X17000Y-8000D02*
X15000Y-6000D01*
X34000Y-6000D02*
X34000Y-5500D01*
X34000Y-5500D02*
X33500Y-5000D01*
X25000Y-5000D02*
X25000Y-6000D01*
X15000Y-6000D02*
X15000Y-5000D01*
X24000Y-3000D02*
X25000Y-4000D01*
X32000Y-4000D02*
X32000Y-3000D01*
X12000Y-3000D02*
X14000Y-1000D01*
X31000Y-3000D02*
X29000Y-1000D01*
X14000Y-1000D02*
X29000Y-1000D01*
X34000Y-3000D02*
X32500Y-1500D01*
X10000Y-3000D02*
X12000Y-1000D01*
X11000Y-3000D02*
X12000Y-4000D01*
X33000Y-6000D02*
X33000Y-4500D01*
X17000Y-3000D02*
X18000Y-2000D01*
X23000Y-2000D02*
X23000Y-3000D01*
X2000Y-2000D02*
X2000Y-4000D01*
X7000Y-4000D02*
X7000Y-2000D01*
X4000Y-4000D02*
X4000Y-2000D01*
X36000Y-4500D02*
X36000Y-3500D01*
X36000Y-3500D02*
X35000Y-2500D01*
X15000Y-3000D02*
X16000Y-4000D01*
X24000Y-4000D02*
X24500Y-4500D01*
X30000Y-5000D02*
X30000Y-6000D01*
X29500Y-4500D02*
X30000Y-5000D01*
X24500Y-4500D02*
X29500Y-4500D01*
X29000Y-6000D02*
X27500Y-7500D01*
X13500Y-6500D02*
X14500Y-7500D01*
X13500Y-3500D02*
X13000Y-3000D01*
X13500Y-6500D02*
X13500Y-3500D01*
X32500Y-6500D02*
X32000Y-7000D01*
X32500Y-3500D02*
X33000Y-3000D01*
X32500Y-6500D02*
X32500Y-3500D01*
X14000Y-6000D02*
X15000Y-7000D01*
X9000Y-3000D02*
X10500Y-1500D01*
X18000Y-8500D02*
X18000Y-8000D01*
X18000Y-8000D02*
X16500Y-6500D01*
X16500Y-6500D02*
X16500Y-1500D01*
X16500Y-6500D02*
X18000Y-8000D01*
X19000Y-2000D02*
X19000Y-1500D01*
X19000Y-3000D02*
X19000Y-2000D01*
X18000Y-8000D02*
X16500Y-6500D01*
G54D10*
G36*
X17698Y-8970D02*
X17290Y-8970D01*
X17315Y-8885D01*
X17000Y-8570D01*
X16684Y-8885D01*
X16709Y-8970D01*
X16301Y-8970D01*
X16311Y-8966D01*
X16465Y-8811D01*
X16497Y-8736D01*
X16518Y-8787D01*
X16614Y-8815D01*
X16929Y-8500D01*
X16614Y-8184D01*
X16518Y-8212D01*
X16499Y-8267D01*
X16466Y-8188D01*
X16311Y-8034D01*
X16109Y-7950D01*
X15891Y-7949D01*
X15688Y-8033D01*
X15534Y-8188D01*
X15529Y-8197D01*
X15529Y-6075D01*
X15518Y-5867D01*
X15460Y-5727D01*
X15367Y-5702D01*
X15297Y-5773D01*
X15297Y-5632D01*
X15272Y-5539D01*
X15075Y-5470D01*
X14867Y-5481D01*
X14727Y-5539D01*
X14702Y-5632D01*
X15000Y-5929D01*
X15297Y-5632D01*
X15297Y-5773D01*
X15070Y-6000D01*
X15367Y-6297D01*
X15460Y-6272D01*
X15529Y-6075D01*
X15529Y-8197D01*
X15500Y-8269D01*
X15466Y-8188D01*
X15311Y-8034D01*
X15109Y-7950D01*
X14891Y-7949D01*
X14688Y-8033D01*
X14534Y-8188D01*
X14500Y-8269D01*
X14466Y-8188D01*
X14311Y-8034D01*
X14109Y-7950D01*
X13891Y-7949D01*
X13688Y-8033D01*
X13534Y-8188D01*
X13500Y-8269D01*
X13466Y-8188D01*
X13311Y-8034D01*
X13109Y-7950D01*
X12891Y-7949D01*
X12688Y-8033D01*
X12534Y-8188D01*
X12500Y-8269D01*
X12466Y-8188D01*
X12311Y-8034D01*
X12300Y-8029D01*
X12300Y-7124D01*
X12899Y-6524D01*
X13103Y-6525D01*
X13200Y-6485D01*
X13200Y-6500D01*
X13222Y-6614D01*
X13287Y-6712D01*
X14075Y-7499D01*
X14074Y-7584D01*
X14139Y-7740D01*
X14258Y-7860D01*
X14415Y-7924D01*
X14584Y-7925D01*
X14740Y-7860D01*
X14860Y-7741D01*
X14924Y-7584D01*
X14925Y-7424D01*
X15084Y-7425D01*
X15240Y-7360D01*
X15360Y-7241D01*
X15424Y-7084D01*
X15425Y-6915D01*
X15360Y-6759D01*
X15241Y-6639D01*
X15084Y-6575D01*
X14999Y-6574D01*
X14952Y-6528D01*
X15132Y-6518D01*
X15272Y-6460D01*
X15297Y-6367D01*
X15000Y-6070D01*
X14994Y-6076D01*
X14923Y-6005D01*
X14929Y-6000D01*
X14632Y-5702D01*
X14539Y-5727D01*
X14500Y-5837D01*
X14445Y-5703D01*
X14297Y-5555D01*
X14104Y-5475D01*
X13896Y-5474D01*
X13800Y-5514D01*
X13800Y-3500D01*
X13796Y-3484D01*
X13895Y-3524D01*
X14103Y-3525D01*
X14297Y-3445D01*
X14444Y-3297D01*
X14500Y-3164D01*
X14554Y-3297D01*
X14702Y-3444D01*
X14895Y-3524D01*
X15100Y-3525D01*
X15575Y-3999D01*
X15574Y-4084D01*
X15639Y-4240D01*
X15758Y-4360D01*
X15915Y-4424D01*
X16084Y-4425D01*
X16200Y-4377D01*
X16200Y-6500D01*
X16222Y-6614D01*
X16287Y-6712D01*
X17648Y-8073D01*
X17534Y-8188D01*
X17502Y-8263D01*
X17481Y-8212D01*
X17385Y-8184D01*
X17315Y-8255D01*
X17315Y-8114D01*
X17287Y-8018D01*
X17081Y-7945D01*
X16863Y-7956D01*
X16712Y-8018D01*
X16684Y-8114D01*
X17000Y-8429D01*
X17315Y-8114D01*
X17315Y-8255D01*
X17070Y-8500D01*
X17385Y-8815D01*
X17481Y-8787D01*
X17500Y-8732D01*
X17533Y-8811D01*
X17688Y-8965D01*
X17698Y-8970D01*
X17698Y-8970D01*
G37*
G54D17*
X17698Y-8970D02*
X17290Y-8970D01*
X17315Y-8885D01*
X17000Y-8570D01*
X16684Y-8885D01*
X16709Y-8970D01*
X16301Y-8970D01*
X16311Y-8966D01*
X16465Y-8811D01*
X16497Y-8736D01*
X16518Y-8787D01*
X16614Y-8815D01*
X16929Y-8500D01*
X16614Y-8184D01*
X16518Y-8212D01*
X16499Y-8267D01*
X16466Y-8188D01*
X16311Y-8034D01*
X16109Y-7950D01*
X15891Y-7949D01*
X15688Y-8033D01*
X15534Y-8188D01*
X15529Y-8197D01*
X15529Y-6075D01*
X15518Y-5867D01*
X15460Y-5727D01*
X15367Y-5702D01*
X15297Y-5773D01*
X15297Y-5632D01*
X15272Y-5539D01*
X15075Y-5470D01*
X14867Y-5481D01*
X14727Y-5539D01*
X14702Y-5632D01*
X15000Y-5929D01*
X15297Y-5632D01*
X15297Y-5773D01*
X15070Y-6000D01*
X15367Y-6297D01*
X15460Y-6272D01*
X15529Y-6075D01*
X15529Y-8197D01*
X15500Y-8269D01*
X15466Y-8188D01*
X15311Y-8034D01*
X15109Y-7950D01*
X14891Y-7949D01*
X14688Y-8033D01*
X14534Y-8188D01*
X14500Y-8269D01*
X14466Y-8188D01*
X14311Y-8034D01*
X14109Y-7950D01*
X13891Y-7949D01*
X13688Y-8033D01*
X13534Y-8188D01*
X13500Y-8269D01*
X13466Y-8188D01*
X13311Y-8034D01*
X13109Y-7950D01*
X12891Y-7949D01*
X12688Y-8033D01*
X12534Y-8188D01*
X12500Y-8269D01*
X12466Y-8188D01*
X12311Y-8034D01*
X12300Y-8029D01*
X12300Y-7124D01*
X12899Y-6524D01*
X13103Y-6525D01*
X13200Y-6485D01*
X13200Y-6500D01*
X13222Y-6614D01*
X13287Y-6712D01*
X14075Y-7499D01*
X14074Y-7584D01*
X14139Y-7740D01*
X14258Y-7860D01*
X14415Y-7924D01*
X14584Y-7925D01*
X14740Y-7860D01*
X14860Y-7741D01*
X14924Y-7584D01*
X14925Y-7424D01*
X15084Y-7425D01*
X15240Y-7360D01*
X15360Y-7241D01*
X15424Y-7084D01*
X15425Y-6915D01*
X15360Y-6759D01*
X15241Y-6639D01*
X15084Y-6575D01*
X14999Y-6574D01*
X14952Y-6528D01*
X15132Y-6518D01*
X15272Y-6460D01*
X15297Y-6367D01*
X15000Y-6070D01*
X14994Y-6076D01*
X14923Y-6005D01*
X14929Y-6000D01*
X14632Y-5702D01*
X14539Y-5727D01*
X14500Y-5837D01*
X14445Y-5703D01*
X14297Y-5555D01*
X14104Y-5475D01*
X13896Y-5474D01*
X13800Y-5514D01*
X13800Y-3500D01*
X13796Y-3484D01*
X13895Y-3524D01*
X14103Y-3525D01*
X14297Y-3445D01*
X14444Y-3297D01*
X14500Y-3164D01*
X14554Y-3297D01*
X14702Y-3444D01*
X14895Y-3524D01*
X15100Y-3525D01*
X15575Y-3999D01*
X15574Y-4084D01*
X15639Y-4240D01*
X15758Y-4360D01*
X15915Y-4424D01*
X16084Y-4425D01*
X16200Y-4377D01*
X16200Y-6500D01*
X16222Y-6614D01*
X16287Y-6712D01*
X17648Y-8073D01*
X17534Y-8188D01*
X17502Y-8263D01*
X17481Y-8212D01*
X17385Y-8184D01*
X17315Y-8255D01*
X17315Y-8114D01*
X17287Y-8018D01*
X17081Y-7945D01*
X16863Y-7956D01*
X16712Y-8018D01*
X16684Y-8114D01*
X17000Y-8429D01*
X17315Y-8114D01*
X17315Y-8255D01*
X17070Y-8500D01*
X17385Y-8815D01*
X17481Y-8787D01*
X17500Y-8732D01*
X17533Y-8811D01*
X17688Y-8965D01*
X17698Y-8970D01*
G54D10*
G36*
X29700Y-5557D02*
X29555Y-5702D01*
X29499Y-5835D01*
X29445Y-5703D01*
X29297Y-5555D01*
X29104Y-5475D01*
X28896Y-5474D01*
X28703Y-5554D01*
X28555Y-5702D01*
X28525Y-5774D01*
X28525Y-5675D01*
X28487Y-5583D01*
X28416Y-5513D01*
X28324Y-5475D01*
X28225Y-5474D01*
X27675Y-5474D01*
X27583Y-5512D01*
X27513Y-5583D01*
X27475Y-5675D01*
X27475Y-5704D01*
X27385Y-5722D01*
X27287Y-5787D01*
X26287Y-6787D01*
X26222Y-6885D01*
X26200Y-7000D01*
X26200Y-7698D01*
X26139Y-7758D01*
X26075Y-7915D01*
X26075Y-7950D01*
X25891Y-7949D01*
X25879Y-7954D01*
X25529Y-7605D01*
X25529Y-6075D01*
X25518Y-5867D01*
X25460Y-5727D01*
X25367Y-5702D01*
X25297Y-5773D01*
X25297Y-5632D01*
X25272Y-5539D01*
X25075Y-5470D01*
X24867Y-5481D01*
X24727Y-5539D01*
X24702Y-5632D01*
X25000Y-5929D01*
X25297Y-5632D01*
X25297Y-5773D01*
X25070Y-6000D01*
X25367Y-6297D01*
X25460Y-6272D01*
X25529Y-6075D01*
X25529Y-7605D01*
X25297Y-7372D01*
X25297Y-6367D01*
X25000Y-6070D01*
X24702Y-6367D01*
X24727Y-6460D01*
X24924Y-6529D01*
X25132Y-6518D01*
X25272Y-6460D01*
X25297Y-6367D01*
X25297Y-7372D01*
X24712Y-6787D01*
X24712Y-6787D01*
X24712Y-6787D01*
X24333Y-6409D01*
X24444Y-6297D01*
X24497Y-6171D01*
X24539Y-6272D01*
X24632Y-6297D01*
X24929Y-6000D01*
X24632Y-5702D01*
X24539Y-5727D01*
X24500Y-5837D01*
X24445Y-5703D01*
X24297Y-5555D01*
X24104Y-5475D01*
X23896Y-5474D01*
X23703Y-5554D01*
X23555Y-5702D01*
X23499Y-5835D01*
X23445Y-5703D01*
X23297Y-5555D01*
X23104Y-5475D01*
X22896Y-5474D01*
X22703Y-5554D01*
X22555Y-5702D01*
X22499Y-5835D01*
X22445Y-5703D01*
X22297Y-5555D01*
X22104Y-5475D01*
X21896Y-5474D01*
X21703Y-5554D01*
X21555Y-5702D01*
X21499Y-5835D01*
X21445Y-5703D01*
X21297Y-5555D01*
X21104Y-5475D01*
X20896Y-5474D01*
X20703Y-5554D01*
X20555Y-5702D01*
X20499Y-5835D01*
X20445Y-5703D01*
X20297Y-5555D01*
X20104Y-5475D01*
X19896Y-5474D01*
X19800Y-5514D01*
X19800Y-3624D01*
X19899Y-3524D01*
X20103Y-3525D01*
X20297Y-3445D01*
X20444Y-3297D01*
X20500Y-3164D01*
X20554Y-3297D01*
X20702Y-3444D01*
X20895Y-3524D01*
X21103Y-3525D01*
X21297Y-3445D01*
X21444Y-3297D01*
X21500Y-3164D01*
X21554Y-3297D01*
X21603Y-3346D01*
X21575Y-3415D01*
X21574Y-3584D01*
X21639Y-3740D01*
X21758Y-3860D01*
X21915Y-3924D01*
X22084Y-3925D01*
X22240Y-3860D01*
X22360Y-3741D01*
X22424Y-3584D01*
X22425Y-3415D01*
X22396Y-3346D01*
X22444Y-3297D01*
X22500Y-3164D01*
X22554Y-3297D01*
X22702Y-3444D01*
X22895Y-3524D01*
X23103Y-3525D01*
X23297Y-3445D01*
X23444Y-3297D01*
X23500Y-3164D01*
X23554Y-3297D01*
X23702Y-3444D01*
X23895Y-3524D01*
X24100Y-3525D01*
X24197Y-3621D01*
X24084Y-3575D01*
X23915Y-3574D01*
X23759Y-3639D01*
X23639Y-3758D01*
X23575Y-3915D01*
X23574Y-4084D01*
X23639Y-4240D01*
X23758Y-4360D01*
X23915Y-4424D01*
X24000Y-4425D01*
X24287Y-4712D01*
X24287Y-4712D01*
X24385Y-4777D01*
X24500Y-4800D01*
X29375Y-4800D01*
X29700Y-5124D01*
X29700Y-5557D01*
X29700Y-5557D01*
G37*
G54D17*
X29700Y-5557D02*
X29555Y-5702D01*
X29499Y-5835D01*
X29445Y-5703D01*
X29297Y-5555D01*
X29104Y-5475D01*
X28896Y-5474D01*
X28703Y-5554D01*
X28555Y-5702D01*
X28525Y-5774D01*
X28525Y-5675D01*
X28487Y-5583D01*
X28416Y-5513D01*
X28324Y-5475D01*
X28225Y-5474D01*
X27675Y-5474D01*
X27583Y-5512D01*
X27513Y-5583D01*
X27475Y-5675D01*
X27475Y-5704D01*
X27385Y-5722D01*
X27287Y-5787D01*
X26287Y-6787D01*
X26222Y-6885D01*
X26200Y-7000D01*
X26200Y-7698D01*
X26139Y-7758D01*
X26075Y-7915D01*
X26075Y-7950D01*
X25891Y-7949D01*
X25879Y-7954D01*
X25529Y-7605D01*
X25529Y-6075D01*
X25518Y-5867D01*
X25460Y-5727D01*
X25367Y-5702D01*
X25297Y-5773D01*
X25297Y-5632D01*
X25272Y-5539D01*
X25075Y-5470D01*
X24867Y-5481D01*
X24727Y-5539D01*
X24702Y-5632D01*
X25000Y-5929D01*
X25297Y-5632D01*
X25297Y-5773D01*
X25070Y-6000D01*
X25367Y-6297D01*
X25460Y-6272D01*
X25529Y-6075D01*
X25529Y-7605D01*
X25297Y-7372D01*
X25297Y-6367D01*
X25000Y-6070D01*
X24702Y-6367D01*
X24727Y-6460D01*
X24924Y-6529D01*
X25132Y-6518D01*
X25272Y-6460D01*
X25297Y-6367D01*
X25297Y-7372D01*
X24712Y-6787D01*
X24712Y-6787D01*
X24712Y-6787D01*
X24333Y-6409D01*
X24444Y-6297D01*
X24497Y-6171D01*
X24539Y-6272D01*
X24632Y-6297D01*
X24929Y-6000D01*
X24632Y-5702D01*
X24539Y-5727D01*
X24500Y-5837D01*
X24445Y-5703D01*
X24297Y-5555D01*
X24104Y-5475D01*
X23896Y-5474D01*
X23703Y-5554D01*
X23555Y-5702D01*
X23499Y-5835D01*
X23445Y-5703D01*
X23297Y-5555D01*
X23104Y-5475D01*
X22896Y-5474D01*
X22703Y-5554D01*
X22555Y-5702D01*
X22499Y-5835D01*
X22445Y-5703D01*
X22297Y-5555D01*
X22104Y-5475D01*
X21896Y-5474D01*
X21703Y-5554D01*
X21555Y-5702D01*
X21499Y-5835D01*
X21445Y-5703D01*
X21297Y-5555D01*
X21104Y-5475D01*
X20896Y-5474D01*
X20703Y-5554D01*
X20555Y-5702D01*
X20499Y-5835D01*
X20445Y-5703D01*
X20297Y-5555D01*
X20104Y-5475D01*
X19896Y-5474D01*
X19800Y-5514D01*
X19800Y-3624D01*
X19899Y-3524D01*
X20103Y-3525D01*
X20297Y-3445D01*
X20444Y-3297D01*
X20500Y-3164D01*
X20554Y-3297D01*
X20702Y-3444D01*
X20895Y-3524D01*
X21103Y-3525D01*
X21297Y-3445D01*
X21444Y-3297D01*
X21500Y-3164D01*
X21554Y-3297D01*
X21603Y-3346D01*
X21575Y-3415D01*
X21574Y-3584D01*
X21639Y-3740D01*
X21758Y-3860D01*
X21915Y-3924D01*
X22084Y-3925D01*
X22240Y-3860D01*
X22360Y-3741D01*
X22424Y-3584D01*
X22425Y-3415D01*
X22396Y-3346D01*
X22444Y-3297D01*
X22500Y-3164D01*
X22554Y-3297D01*
X22702Y-3444D01*
X22895Y-3524D01*
X23103Y-3525D01*
X23297Y-3445D01*
X23444Y-3297D01*
X23500Y-3164D01*
X23554Y-3297D01*
X23702Y-3444D01*
X23895Y-3524D01*
X24100Y-3525D01*
X24197Y-3621D01*
X24084Y-3575D01*
X23915Y-3574D01*
X23759Y-3639D01*
X23639Y-3758D01*
X23575Y-3915D01*
X23574Y-4084D01*
X23639Y-4240D01*
X23758Y-4360D01*
X23915Y-4424D01*
X24000Y-4425D01*
X24287Y-4712D01*
X24287Y-4712D01*
X24385Y-4777D01*
X24500Y-4800D01*
X29375Y-4800D01*
X29700Y-5124D01*
X29700Y-5557D01*
G54D10*
G36*
X40470Y-3016D02*
X40441Y-2988D01*
X40349Y-2950D01*
X40250Y-2949D01*
X39650Y-2949D01*
X39558Y-2987D01*
X39488Y-3058D01*
X39450Y-3150D01*
X39450Y-3172D01*
X39311Y-3034D01*
X39109Y-2950D01*
X38891Y-2949D01*
X38688Y-3033D01*
X38534Y-3188D01*
X38500Y-3269D01*
X38466Y-3188D01*
X38311Y-3034D01*
X38109Y-2950D01*
X37891Y-2949D01*
X37688Y-3033D01*
X37534Y-3188D01*
X37500Y-3269D01*
X37466Y-3188D01*
X37311Y-3034D01*
X37109Y-2950D01*
X36891Y-2949D01*
X36688Y-3033D01*
X36534Y-3188D01*
X36450Y-3390D01*
X36449Y-3608D01*
X36533Y-3811D01*
X36672Y-3949D01*
X36650Y-3949D01*
X36558Y-3987D01*
X36499Y-4046D01*
X36441Y-3988D01*
X36349Y-3950D01*
X36300Y-3950D01*
X36300Y-3500D01*
X36277Y-3385D01*
X36212Y-3287D01*
X36212Y-3287D01*
X35424Y-2500D01*
X35425Y-2415D01*
X35360Y-2259D01*
X35241Y-2139D01*
X35084Y-2075D01*
X34915Y-2074D01*
X34759Y-2139D01*
X34639Y-2258D01*
X34575Y-2415D01*
X34574Y-2584D01*
X34639Y-2740D01*
X34758Y-2860D01*
X34915Y-2924D01*
X35000Y-2925D01*
X35700Y-3624D01*
X35700Y-3949D01*
X35650Y-3949D01*
X35558Y-3987D01*
X35488Y-4058D01*
X35450Y-4150D01*
X35449Y-4249D01*
X35449Y-4849D01*
X35487Y-4941D01*
X35558Y-5011D01*
X35650Y-5049D01*
X35749Y-5050D01*
X36200Y-5050D01*
X36200Y-7987D01*
X36109Y-7950D01*
X35891Y-7949D01*
X35688Y-8033D01*
X35534Y-8188D01*
X35500Y-8269D01*
X35466Y-8188D01*
X35311Y-8034D01*
X35109Y-7950D01*
X34891Y-7949D01*
X34688Y-8033D01*
X34534Y-8188D01*
X34529Y-8197D01*
X34529Y-6075D01*
X34518Y-5867D01*
X34460Y-5727D01*
X34367Y-5702D01*
X34297Y-5773D01*
X34297Y-5632D01*
X34272Y-5539D01*
X34075Y-5470D01*
X33867Y-5481D01*
X33727Y-5539D01*
X33702Y-5632D01*
X34000Y-5929D01*
X34297Y-5632D01*
X34297Y-5773D01*
X34070Y-6000D01*
X34367Y-6297D01*
X34460Y-6272D01*
X34529Y-6075D01*
X34529Y-8197D01*
X34500Y-8269D01*
X34466Y-8188D01*
X34311Y-8034D01*
X34297Y-8027D01*
X34297Y-6367D01*
X34000Y-6070D01*
X33702Y-6367D01*
X33727Y-6460D01*
X33924Y-6529D01*
X34132Y-6518D01*
X34272Y-6460D01*
X34297Y-6367D01*
X34297Y-8027D01*
X34109Y-7950D01*
X33891Y-7949D01*
X33688Y-8033D01*
X33534Y-8188D01*
X33500Y-8269D01*
X33466Y-8188D01*
X33311Y-8034D01*
X33109Y-7950D01*
X32891Y-7949D01*
X32688Y-8033D01*
X32534Y-8188D01*
X32500Y-8269D01*
X32466Y-8188D01*
X32311Y-8034D01*
X32109Y-7950D01*
X31891Y-7949D01*
X31688Y-8033D01*
X31534Y-8188D01*
X31500Y-8269D01*
X31466Y-8188D01*
X31311Y-8034D01*
X31109Y-7950D01*
X30891Y-7949D01*
X30688Y-8033D01*
X30534Y-8188D01*
X30500Y-8269D01*
X30466Y-8188D01*
X30311Y-8034D01*
X30109Y-7950D01*
X29891Y-7949D01*
X29688Y-8033D01*
X29534Y-8188D01*
X29500Y-8269D01*
X29466Y-8188D01*
X29311Y-8034D01*
X29109Y-7950D01*
X28891Y-7949D01*
X28688Y-8033D01*
X28534Y-8188D01*
X28500Y-8269D01*
X28466Y-8188D01*
X28311Y-8034D01*
X28109Y-7950D01*
X27891Y-7949D01*
X27688Y-8033D01*
X27534Y-8188D01*
X27500Y-8269D01*
X27466Y-8188D01*
X27311Y-8034D01*
X27109Y-7950D01*
X26925Y-7949D01*
X26925Y-7915D01*
X26860Y-7759D01*
X26800Y-7698D01*
X26800Y-7124D01*
X27511Y-6412D01*
X27512Y-6416D01*
X27583Y-6486D01*
X27675Y-6524D01*
X27774Y-6525D01*
X28050Y-6525D01*
X27500Y-7075D01*
X27415Y-7074D01*
X27259Y-7139D01*
X27139Y-7258D01*
X27075Y-7415D01*
X27074Y-7584D01*
X27139Y-7740D01*
X27258Y-7860D01*
X27415Y-7924D01*
X27584Y-7925D01*
X27740Y-7860D01*
X27860Y-7741D01*
X27924Y-7584D01*
X27925Y-7499D01*
X28899Y-6524D01*
X29103Y-6525D01*
X29297Y-6445D01*
X29444Y-6297D01*
X29500Y-6164D01*
X29554Y-6297D01*
X29702Y-6444D01*
X29895Y-6524D01*
X30103Y-6525D01*
X30297Y-6445D01*
X30444Y-6297D01*
X30500Y-6164D01*
X30554Y-6297D01*
X30702Y-6444D01*
X30895Y-6524D01*
X31103Y-6525D01*
X31297Y-6445D01*
X31444Y-6297D01*
X31500Y-6164D01*
X31554Y-6297D01*
X31702Y-6444D01*
X31895Y-6524D01*
X32050Y-6525D01*
X32000Y-6575D01*
X31915Y-6574D01*
X31759Y-6639D01*
X31639Y-6758D01*
X31575Y-6915D01*
X31574Y-7084D01*
X31639Y-7240D01*
X31758Y-7360D01*
X31915Y-7424D01*
X32084Y-7425D01*
X32240Y-7360D01*
X32360Y-7241D01*
X32424Y-7084D01*
X32425Y-6999D01*
X32712Y-6712D01*
X32712Y-6712D01*
X32777Y-6614D01*
X32799Y-6500D01*
X32800Y-6500D01*
X32800Y-6485D01*
X32895Y-6524D01*
X33103Y-6525D01*
X33297Y-6445D01*
X33444Y-6297D01*
X33497Y-6171D01*
X33539Y-6272D01*
X33632Y-6297D01*
X33929Y-6000D01*
X33632Y-5702D01*
X33539Y-5727D01*
X33500Y-5837D01*
X33445Y-5703D01*
X33300Y-5557D01*
X33300Y-4801D01*
X33360Y-4741D01*
X33424Y-4584D01*
X33425Y-4415D01*
X33360Y-4259D01*
X33241Y-4139D01*
X33084Y-4075D01*
X32915Y-4074D01*
X32800Y-4122D01*
X32800Y-3624D01*
X32899Y-3524D01*
X33103Y-3525D01*
X33297Y-3445D01*
X33444Y-3297D01*
X33500Y-3164D01*
X33554Y-3297D01*
X33702Y-3444D01*
X33895Y-3524D01*
X34103Y-3525D01*
X34297Y-3445D01*
X34444Y-3297D01*
X34524Y-3104D01*
X34525Y-2896D01*
X34445Y-2703D01*
X34297Y-2555D01*
X34104Y-2475D01*
X33899Y-2474D01*
X32924Y-1500D01*
X32925Y-1415D01*
X32860Y-1259D01*
X32741Y-1139D01*
X32584Y-1075D01*
X32415Y-1074D01*
X32259Y-1139D01*
X32139Y-1258D01*
X32075Y-1415D01*
X32074Y-1584D01*
X32139Y-1740D01*
X32258Y-1860D01*
X32415Y-1924D01*
X32500Y-1925D01*
X33050Y-2475D01*
X32896Y-2474D01*
X32703Y-2554D01*
X32555Y-2702D01*
X32499Y-2835D01*
X32445Y-2703D01*
X32297Y-2555D01*
X32104Y-2475D01*
X31896Y-2474D01*
X31703Y-2554D01*
X31555Y-2702D01*
X31499Y-2835D01*
X31445Y-2703D01*
X31297Y-2555D01*
X31104Y-2475D01*
X30899Y-2474D01*
X29212Y-787D01*
X29114Y-722D01*
X29000Y-700D01*
X14000Y-700D01*
X13885Y-722D01*
X13787Y-787D01*
X12100Y-2475D01*
X11896Y-2474D01*
X11703Y-2554D01*
X11555Y-2702D01*
X11499Y-2835D01*
X11445Y-2703D01*
X11297Y-2555D01*
X11104Y-2475D01*
X10949Y-2474D01*
X11999Y-1424D01*
X12084Y-1425D01*
X12240Y-1360D01*
X12360Y-1241D01*
X12424Y-1084D01*
X12425Y-915D01*
X12360Y-759D01*
X12241Y-639D01*
X12084Y-575D01*
X11915Y-574D01*
X11759Y-639D01*
X11639Y-758D01*
X11575Y-915D01*
X11574Y-1000D01*
X10878Y-1697D01*
X10924Y-1584D01*
X10925Y-1415D01*
X10860Y-1259D01*
X10741Y-1139D01*
X10584Y-1075D01*
X10415Y-1074D01*
X10259Y-1139D01*
X10139Y-1258D01*
X10075Y-1415D01*
X10074Y-1500D01*
X9100Y-2475D01*
X8896Y-2474D01*
X8703Y-2554D01*
X8555Y-2702D01*
X8475Y-2895D01*
X8474Y-3103D01*
X8554Y-3297D01*
X8702Y-3444D01*
X8895Y-3524D01*
X9103Y-3525D01*
X9297Y-3445D01*
X9444Y-3297D01*
X9500Y-3164D01*
X9554Y-3297D01*
X9702Y-3444D01*
X9895Y-3524D01*
X10103Y-3525D01*
X10297Y-3445D01*
X10444Y-3297D01*
X10500Y-3164D01*
X10554Y-3297D01*
X10702Y-3444D01*
X10895Y-3524D01*
X11100Y-3525D01*
X11575Y-3999D01*
X11574Y-4084D01*
X11639Y-4240D01*
X11758Y-4360D01*
X11915Y-4424D01*
X12084Y-4425D01*
X12240Y-4360D01*
X12360Y-4241D01*
X12424Y-4084D01*
X12425Y-3915D01*
X12360Y-3759D01*
X12241Y-3639D01*
X12084Y-3575D01*
X11999Y-3574D01*
X11949Y-3524D01*
X12103Y-3525D01*
X12297Y-3445D01*
X12444Y-3297D01*
X12500Y-3164D01*
X12554Y-3297D01*
X12702Y-3444D01*
X12895Y-3524D01*
X13100Y-3525D01*
X13200Y-3624D01*
X13200Y-5514D01*
X13104Y-5475D01*
X12896Y-5474D01*
X12703Y-5554D01*
X12555Y-5702D01*
X12499Y-5835D01*
X12445Y-5703D01*
X12297Y-5555D01*
X12104Y-5475D01*
X11896Y-5474D01*
X11703Y-5554D01*
X11555Y-5702D01*
X11499Y-5835D01*
X11445Y-5703D01*
X11297Y-5555D01*
X11104Y-5475D01*
X10896Y-5474D01*
X10703Y-5554D01*
X10555Y-5702D01*
X10499Y-5835D01*
X10445Y-5703D01*
X10297Y-5555D01*
X10104Y-5475D01*
X9896Y-5474D01*
X9703Y-5554D01*
X9555Y-5702D01*
X9525Y-5774D01*
X9525Y-5675D01*
X9487Y-5583D01*
X9416Y-5513D01*
X9324Y-5475D01*
X9225Y-5474D01*
X8675Y-5474D01*
X8583Y-5512D01*
X8513Y-5583D01*
X8475Y-5675D01*
X8474Y-5774D01*
X8474Y-6324D01*
X8512Y-6416D01*
X8583Y-6486D01*
X8675Y-6524D01*
X8700Y-6524D01*
X8700Y-8028D01*
X8688Y-8033D01*
X8534Y-8188D01*
X8486Y-8302D01*
X8445Y-8203D01*
X8297Y-8055D01*
X8104Y-7975D01*
X7896Y-7974D01*
X7703Y-8054D01*
X7580Y-8177D01*
X7580Y-1885D01*
X7491Y-1671D01*
X7328Y-1508D01*
X7115Y-1420D01*
X6885Y-1419D01*
X6671Y-1508D01*
X6508Y-1671D01*
X6500Y-1691D01*
X6491Y-1671D01*
X6328Y-1508D01*
X6115Y-1420D01*
X5885Y-1419D01*
X5671Y-1508D01*
X5508Y-1671D01*
X5420Y-1884D01*
X5419Y-2114D01*
X5508Y-2328D01*
X5671Y-2491D01*
X5884Y-2579D01*
X6114Y-2580D01*
X6328Y-2491D01*
X6491Y-2328D01*
X6499Y-2308D01*
X6508Y-2328D01*
X6671Y-2491D01*
X6700Y-2503D01*
X6700Y-3557D01*
X6555Y-3702D01*
X6475Y-3895D01*
X6474Y-4103D01*
X6554Y-4297D01*
X6702Y-4444D01*
X6828Y-4497D01*
X6727Y-4539D01*
X6702Y-4632D01*
X7000Y-4929D01*
X7297Y-4632D01*
X7272Y-4539D01*
X7162Y-4500D01*
X7297Y-4445D01*
X7444Y-4297D01*
X7524Y-4104D01*
X7525Y-3896D01*
X7445Y-3703D01*
X7300Y-3557D01*
X7300Y-2503D01*
X7328Y-2491D01*
X7491Y-2328D01*
X7579Y-2115D01*
X7580Y-1885D01*
X7580Y-8177D01*
X7555Y-8202D01*
X7529Y-8263D01*
X7529Y-5075D01*
X7518Y-4867D01*
X7460Y-4727D01*
X7367Y-4702D01*
X7070Y-5000D01*
X7367Y-5297D01*
X7460Y-5272D01*
X7529Y-5075D01*
X7529Y-8263D01*
X7513Y-8302D01*
X7466Y-8188D01*
X7311Y-8034D01*
X7297Y-8027D01*
X7297Y-5367D01*
X7000Y-5070D01*
X6929Y-5141D01*
X6929Y-5000D01*
X6632Y-4702D01*
X6539Y-4727D01*
X6470Y-4924D01*
X6481Y-5132D01*
X6539Y-5272D01*
X6632Y-5297D01*
X6929Y-5000D01*
X6929Y-5141D01*
X6702Y-5367D01*
X6727Y-5460D01*
X6924Y-5529D01*
X7132Y-5518D01*
X7272Y-5460D01*
X7297Y-5367D01*
X7297Y-8027D01*
X7109Y-7950D01*
X6891Y-7949D01*
X6688Y-8033D01*
X6534Y-8188D01*
X6500Y-8269D01*
X6466Y-8188D01*
X6311Y-8034D01*
X6109Y-7950D01*
X5891Y-7949D01*
X5688Y-8033D01*
X5534Y-8188D01*
X5500Y-8269D01*
X5466Y-8188D01*
X5311Y-8034D01*
X5109Y-7950D01*
X4891Y-7949D01*
X4688Y-8033D01*
X4534Y-8188D01*
X4500Y-8269D01*
X4466Y-8188D01*
X4311Y-8034D01*
X4109Y-7950D01*
X3891Y-7949D01*
X3688Y-8033D01*
X3534Y-8188D01*
X3500Y-8269D01*
X3466Y-8188D01*
X3311Y-8034D01*
X3109Y-7950D01*
X2891Y-7949D01*
X2688Y-8033D01*
X2534Y-8188D01*
X2529Y-8197D01*
X2529Y-5075D01*
X2518Y-4867D01*
X2460Y-4727D01*
X2367Y-4702D01*
X2070Y-5000D01*
X2367Y-5297D01*
X2460Y-5272D01*
X2529Y-5075D01*
X2529Y-8197D01*
X2500Y-8269D01*
X2466Y-8188D01*
X2311Y-8034D01*
X2297Y-8027D01*
X2297Y-5367D01*
X2000Y-5070D01*
X1929Y-5141D01*
X1929Y-5000D01*
X1632Y-4702D01*
X1539Y-4727D01*
X1470Y-4924D01*
X1481Y-5132D01*
X1539Y-5272D01*
X1632Y-5297D01*
X1929Y-5000D01*
X1929Y-5141D01*
X1702Y-5367D01*
X1727Y-5460D01*
X1924Y-5529D01*
X2132Y-5518D01*
X2272Y-5460D01*
X2297Y-5367D01*
X2297Y-8027D01*
X2109Y-7950D01*
X1891Y-7949D01*
X1688Y-8033D01*
X1550Y-8172D01*
X1550Y-8150D01*
X1512Y-8058D01*
X1441Y-7988D01*
X1349Y-7950D01*
X1250Y-7949D01*
X650Y-7949D01*
X558Y-7987D01*
X529Y-8016D01*
X529Y-2349D01*
X671Y-2491D01*
X700Y-2503D01*
X700Y-3000D01*
X722Y-3114D01*
X787Y-3212D01*
X1075Y-3499D01*
X1074Y-3584D01*
X1139Y-3740D01*
X1258Y-3860D01*
X1415Y-3924D01*
X1475Y-3924D01*
X1474Y-4103D01*
X1554Y-4297D01*
X1702Y-4444D01*
X1828Y-4497D01*
X1727Y-4539D01*
X1702Y-4632D01*
X2000Y-4929D01*
X2297Y-4632D01*
X2272Y-4539D01*
X2162Y-4500D01*
X2297Y-4445D01*
X2444Y-4297D01*
X2524Y-4104D01*
X2525Y-3896D01*
X2445Y-3703D01*
X2300Y-3557D01*
X2300Y-2503D01*
X2328Y-2491D01*
X2491Y-2328D01*
X2499Y-2308D01*
X2508Y-2328D01*
X2671Y-2491D01*
X2700Y-2503D01*
X2700Y-5000D01*
X2722Y-5114D01*
X2787Y-5212D01*
X3475Y-5899D01*
X3474Y-6103D01*
X3554Y-6297D01*
X3702Y-6444D01*
X3774Y-6474D01*
X3675Y-6474D01*
X3583Y-6512D01*
X3513Y-6583D01*
X3475Y-6675D01*
X3474Y-6774D01*
X3474Y-7324D01*
X3512Y-7416D01*
X3583Y-7486D01*
X3675Y-7524D01*
X3774Y-7525D01*
X4324Y-7525D01*
X4416Y-7487D01*
X4486Y-7416D01*
X4524Y-7324D01*
X4524Y-7295D01*
X4614Y-7277D01*
X4614Y-7277D01*
X4712Y-7212D01*
X5212Y-6712D01*
X5212Y-6712D01*
X5277Y-6614D01*
X5299Y-6500D01*
X5300Y-6500D01*
X5300Y-3801D01*
X5360Y-3741D01*
X5424Y-3584D01*
X5425Y-3415D01*
X5360Y-3259D01*
X5241Y-3139D01*
X5084Y-3075D01*
X4915Y-3074D01*
X4759Y-3139D01*
X4639Y-3258D01*
X4575Y-3415D01*
X4574Y-3584D01*
X4639Y-3740D01*
X4700Y-3801D01*
X4700Y-6375D01*
X4529Y-6545D01*
X4529Y-5075D01*
X4518Y-4867D01*
X4460Y-4727D01*
X4367Y-4702D01*
X4070Y-5000D01*
X4367Y-5297D01*
X4460Y-5272D01*
X4529Y-5075D01*
X4529Y-6545D01*
X4488Y-6587D01*
X4487Y-6583D01*
X4416Y-6513D01*
X4324Y-6475D01*
X4225Y-6474D01*
X4225Y-6474D01*
X4297Y-6445D01*
X4444Y-6297D01*
X4524Y-6104D01*
X4525Y-5896D01*
X4445Y-5703D01*
X4297Y-5555D01*
X4171Y-5502D01*
X4272Y-5460D01*
X4297Y-5367D01*
X4000Y-5070D01*
X3994Y-5076D01*
X3923Y-5005D01*
X3929Y-5000D01*
X3632Y-4702D01*
X3539Y-4727D01*
X3470Y-4924D01*
X3477Y-5052D01*
X3300Y-4875D01*
X3300Y-2503D01*
X3328Y-2491D01*
X3491Y-2328D01*
X3499Y-2308D01*
X3508Y-2328D01*
X3671Y-2491D01*
X3700Y-2503D01*
X3700Y-3557D01*
X3555Y-3702D01*
X3475Y-3895D01*
X3474Y-4103D01*
X3554Y-4297D01*
X3702Y-4444D01*
X3828Y-4497D01*
X3727Y-4539D01*
X3702Y-4632D01*
X4000Y-4929D01*
X4297Y-4632D01*
X4272Y-4539D01*
X4162Y-4500D01*
X4297Y-4445D01*
X4444Y-4297D01*
X4524Y-4104D01*
X4525Y-3896D01*
X4445Y-3703D01*
X4300Y-3557D01*
X4300Y-2503D01*
X4328Y-2491D01*
X4491Y-2328D01*
X4579Y-2115D01*
X4580Y-1885D01*
X4491Y-1671D01*
X4328Y-1508D01*
X4115Y-1420D01*
X3885Y-1419D01*
X3671Y-1508D01*
X3508Y-1671D01*
X3500Y-1691D01*
X3491Y-1671D01*
X3328Y-1508D01*
X3115Y-1420D01*
X2885Y-1419D01*
X2671Y-1508D01*
X2508Y-1671D01*
X2500Y-1691D01*
X2491Y-1671D01*
X2328Y-1508D01*
X2115Y-1420D01*
X1885Y-1419D01*
X1671Y-1508D01*
X1508Y-1671D01*
X1500Y-1691D01*
X1491Y-1671D01*
X1328Y-1508D01*
X1115Y-1420D01*
X885Y-1419D01*
X671Y-1508D01*
X529Y-1650D01*
X529Y-529D01*
X40470Y-529D01*
X40470Y-3016D01*
X40470Y-3016D01*
G37*
G54D17*
X40470Y-3016D02*
X40441Y-2988D01*
X40349Y-2950D01*
X40250Y-2949D01*
X39650Y-2949D01*
X39558Y-2987D01*
X39488Y-3058D01*
X39450Y-3150D01*
X39450Y-3172D01*
X39311Y-3034D01*
X39109Y-2950D01*
X38891Y-2949D01*
X38688Y-3033D01*
X38534Y-3188D01*
X38500Y-3269D01*
X38466Y-3188D01*
X38311Y-3034D01*
X38109Y-2950D01*
X37891Y-2949D01*
X37688Y-3033D01*
X37534Y-3188D01*
X37500Y-3269D01*
X37466Y-3188D01*
X37311Y-3034D01*
X37109Y-2950D01*
X36891Y-2949D01*
X36688Y-3033D01*
X36534Y-3188D01*
X36450Y-3390D01*
X36449Y-3608D01*
X36533Y-3811D01*
X36672Y-3949D01*
X36650Y-3949D01*
X36558Y-3987D01*
X36499Y-4046D01*
X36441Y-3988D01*
X36349Y-3950D01*
X36300Y-3950D01*
X36300Y-3500D01*
X36277Y-3385D01*
X36212Y-3287D01*
X36212Y-3287D01*
X35424Y-2500D01*
X35425Y-2415D01*
X35360Y-2259D01*
X35241Y-2139D01*
X35084Y-2075D01*
X34915Y-2074D01*
X34759Y-2139D01*
X34639Y-2258D01*
X34575Y-2415D01*
X34574Y-2584D01*
X34639Y-2740D01*
X34758Y-2860D01*
X34915Y-2924D01*
X35000Y-2925D01*
X35700Y-3624D01*
X35700Y-3949D01*
X35650Y-3949D01*
X35558Y-3987D01*
X35488Y-4058D01*
X35450Y-4150D01*
X35449Y-4249D01*
X35449Y-4849D01*
X35487Y-4941D01*
X35558Y-5011D01*
X35650Y-5049D01*
X35749Y-5050D01*
X36200Y-5050D01*
X36200Y-7987D01*
X36109Y-7950D01*
X35891Y-7949D01*
X35688Y-8033D01*
X35534Y-8188D01*
X35500Y-8269D01*
X35466Y-8188D01*
X35311Y-8034D01*
X35109Y-7950D01*
X34891Y-7949D01*
X34688Y-8033D01*
X34534Y-8188D01*
X34529Y-8197D01*
X34529Y-6075D01*
X34518Y-5867D01*
X34460Y-5727D01*
X34367Y-5702D01*
X34297Y-5773D01*
X34297Y-5632D01*
X34272Y-5539D01*
X34075Y-5470D01*
X33867Y-5481D01*
X33727Y-5539D01*
X33702Y-5632D01*
X34000Y-5929D01*
X34297Y-5632D01*
X34297Y-5773D01*
X34070Y-6000D01*
X34367Y-6297D01*
X34460Y-6272D01*
X34529Y-6075D01*
X34529Y-8197D01*
X34500Y-8269D01*
X34466Y-8188D01*
X34311Y-8034D01*
X34297Y-8027D01*
X34297Y-6367D01*
X34000Y-6070D01*
X33702Y-6367D01*
X33727Y-6460D01*
X33924Y-6529D01*
X34132Y-6518D01*
X34272Y-6460D01*
X34297Y-6367D01*
X34297Y-8027D01*
X34109Y-7950D01*
X33891Y-7949D01*
X33688Y-8033D01*
X33534Y-8188D01*
X33500Y-8269D01*
X33466Y-8188D01*
X33311Y-8034D01*
X33109Y-7950D01*
X32891Y-7949D01*
X32688Y-8033D01*
X32534Y-8188D01*
X32500Y-8269D01*
X32466Y-8188D01*
X32311Y-8034D01*
X32109Y-7950D01*
X31891Y-7949D01*
X31688Y-8033D01*
X31534Y-8188D01*
X31500Y-8269D01*
X31466Y-8188D01*
X31311Y-8034D01*
X31109Y-7950D01*
X30891Y-7949D01*
X30688Y-8033D01*
X30534Y-8188D01*
X30500Y-8269D01*
X30466Y-8188D01*
X30311Y-8034D01*
X30109Y-7950D01*
X29891Y-7949D01*
X29688Y-8033D01*
X29534Y-8188D01*
X29500Y-8269D01*
X29466Y-8188D01*
X29311Y-8034D01*
X29109Y-7950D01*
X28891Y-7949D01*
X28688Y-8033D01*
X28534Y-8188D01*
X28500Y-8269D01*
X28466Y-8188D01*
X28311Y-8034D01*
X28109Y-7950D01*
X27891Y-7949D01*
X27688Y-8033D01*
X27534Y-8188D01*
X27500Y-8269D01*
X27466Y-8188D01*
X27311Y-8034D01*
X27109Y-7950D01*
X26925Y-7949D01*
X26925Y-7915D01*
X26860Y-7759D01*
X26800Y-7698D01*
X26800Y-7124D01*
X27511Y-6412D01*
X27512Y-6416D01*
X27583Y-6486D01*
X27675Y-6524D01*
X27774Y-6525D01*
X28050Y-6525D01*
X27500Y-7075D01*
X27415Y-7074D01*
X27259Y-7139D01*
X27139Y-7258D01*
X27075Y-7415D01*
X27074Y-7584D01*
X27139Y-7740D01*
X27258Y-7860D01*
X27415Y-7924D01*
X27584Y-7925D01*
X27740Y-7860D01*
X27860Y-7741D01*
X27924Y-7584D01*
X27925Y-7499D01*
X28899Y-6524D01*
X29103Y-6525D01*
X29297Y-6445D01*
X29444Y-6297D01*
X29500Y-6164D01*
X29554Y-6297D01*
X29702Y-6444D01*
X29895Y-6524D01*
X30103Y-6525D01*
X30297Y-6445D01*
X30444Y-6297D01*
X30500Y-6164D01*
X30554Y-6297D01*
X30702Y-6444D01*
X30895Y-6524D01*
X31103Y-6525D01*
X31297Y-6445D01*
X31444Y-6297D01*
X31500Y-6164D01*
X31554Y-6297D01*
X31702Y-6444D01*
X31895Y-6524D01*
X32050Y-6525D01*
X32000Y-6575D01*
X31915Y-6574D01*
X31759Y-6639D01*
X31639Y-6758D01*
X31575Y-6915D01*
X31574Y-7084D01*
X31639Y-7240D01*
X31758Y-7360D01*
X31915Y-7424D01*
X32084Y-7425D01*
X32240Y-7360D01*
X32360Y-7241D01*
X32424Y-7084D01*
X32425Y-6999D01*
X32712Y-6712D01*
X32712Y-6712D01*
X32777Y-6614D01*
X32799Y-6500D01*
X32800Y-6500D01*
X32800Y-6485D01*
X32895Y-6524D01*
X33103Y-6525D01*
X33297Y-6445D01*
X33444Y-6297D01*
X33497Y-6171D01*
X33539Y-6272D01*
X33632Y-6297D01*
X33929Y-6000D01*
X33632Y-5702D01*
X33539Y-5727D01*
X33500Y-5837D01*
X33445Y-5703D01*
X33300Y-5557D01*
X33300Y-4801D01*
X33360Y-4741D01*
X33424Y-4584D01*
X33425Y-4415D01*
X33360Y-4259D01*
X33241Y-4139D01*
X33084Y-4075D01*
X32915Y-4074D01*
X32800Y-4122D01*
X32800Y-3624D01*
X32899Y-3524D01*
X33103Y-3525D01*
X33297Y-3445D01*
X33444Y-3297D01*
X33500Y-3164D01*
X33554Y-3297D01*
X33702Y-3444D01*
X33895Y-3524D01*
X34103Y-3525D01*
X34297Y-3445D01*
X34444Y-3297D01*
X34524Y-3104D01*
X34525Y-2896D01*
X34445Y-2703D01*
X34297Y-2555D01*
X34104Y-2475D01*
X33899Y-2474D01*
X32924Y-1500D01*
X32925Y-1415D01*
X32860Y-1259D01*
X32741Y-1139D01*
X32584Y-1075D01*
X32415Y-1074D01*
X32259Y-1139D01*
X32139Y-1258D01*
X32075Y-1415D01*
X32074Y-1584D01*
X32139Y-1740D01*
X32258Y-1860D01*
X32415Y-1924D01*
X32500Y-1925D01*
X33050Y-2475D01*
X32896Y-2474D01*
X32703Y-2554D01*
X32555Y-2702D01*
X32499Y-2835D01*
X32445Y-2703D01*
X32297Y-2555D01*
X32104Y-2475D01*
X31896Y-2474D01*
X31703Y-2554D01*
X31555Y-2702D01*
X31499Y-2835D01*
X31445Y-2703D01*
X31297Y-2555D01*
X31104Y-2475D01*
X30899Y-2474D01*
X29212Y-787D01*
X29114Y-722D01*
X29000Y-700D01*
X14000Y-700D01*
X13885Y-722D01*
X13787Y-787D01*
X12100Y-2475D01*
X11896Y-2474D01*
X11703Y-2554D01*
X11555Y-2702D01*
X11499Y-2835D01*
X11445Y-2703D01*
X11297Y-2555D01*
X11104Y-2475D01*
X10949Y-2474D01*
X11999Y-1424D01*
X12084Y-1425D01*
X12240Y-1360D01*
X12360Y-1241D01*
X12424Y-1084D01*
X12425Y-915D01*
X12360Y-759D01*
X12241Y-639D01*
X12084Y-575D01*
X11915Y-574D01*
X11759Y-639D01*
X11639Y-758D01*
X11575Y-915D01*
X11574Y-1000D01*
X10878Y-1697D01*
X10924Y-1584D01*
X10925Y-1415D01*
X10860Y-1259D01*
X10741Y-1139D01*
X10584Y-1075D01*
X10415Y-1074D01*
X10259Y-1139D01*
X10139Y-1258D01*
X10075Y-1415D01*
X10074Y-1500D01*
X9100Y-2475D01*
X8896Y-2474D01*
X8703Y-2554D01*
X8555Y-2702D01*
X8475Y-2895D01*
X8474Y-3103D01*
X8554Y-3297D01*
X8702Y-3444D01*
X8895Y-3524D01*
X9103Y-3525D01*
X9297Y-3445D01*
X9444Y-3297D01*
X9500Y-3164D01*
X9554Y-3297D01*
X9702Y-3444D01*
X9895Y-3524D01*
X10103Y-3525D01*
X10297Y-3445D01*
X10444Y-3297D01*
X10500Y-3164D01*
X10554Y-3297D01*
X10702Y-3444D01*
X10895Y-3524D01*
X11100Y-3525D01*
X11575Y-3999D01*
X11574Y-4084D01*
X11639Y-4240D01*
X11758Y-4360D01*
X11915Y-4424D01*
X12084Y-4425D01*
X12240Y-4360D01*
X12360Y-4241D01*
X12424Y-4084D01*
X12425Y-3915D01*
X12360Y-3759D01*
X12241Y-3639D01*
X12084Y-3575D01*
X11999Y-3574D01*
X11949Y-3524D01*
X12103Y-3525D01*
X12297Y-3445D01*
X12444Y-3297D01*
X12500Y-3164D01*
X12554Y-3297D01*
X12702Y-3444D01*
X12895Y-3524D01*
X13100Y-3525D01*
X13200Y-3624D01*
X13200Y-5514D01*
X13104Y-5475D01*
X12896Y-5474D01*
X12703Y-5554D01*
X12555Y-5702D01*
X12499Y-5835D01*
X12445Y-5703D01*
X12297Y-5555D01*
X12104Y-5475D01*
X11896Y-5474D01*
X11703Y-5554D01*
X11555Y-5702D01*
X11499Y-5835D01*
X11445Y-5703D01*
X11297Y-5555D01*
X11104Y-5475D01*
X10896Y-5474D01*
X10703Y-5554D01*
X10555Y-5702D01*
X10499Y-5835D01*
X10445Y-5703D01*
X10297Y-5555D01*
X10104Y-5475D01*
X9896Y-5474D01*
X9703Y-5554D01*
X9555Y-5702D01*
X9525Y-5774D01*
X9525Y-5675D01*
X9487Y-5583D01*
X9416Y-5513D01*
X9324Y-5475D01*
X9225Y-5474D01*
X8675Y-5474D01*
X8583Y-5512D01*
X8513Y-5583D01*
X8475Y-5675D01*
X8474Y-5774D01*
X8474Y-6324D01*
X8512Y-6416D01*
X8583Y-6486D01*
X8675Y-6524D01*
X8700Y-6524D01*
X8700Y-8028D01*
X8688Y-8033D01*
X8534Y-8188D01*
X8486Y-8302D01*
X8445Y-8203D01*
X8297Y-8055D01*
X8104Y-7975D01*
X7896Y-7974D01*
X7703Y-8054D01*
X7580Y-8177D01*
X7580Y-1885D01*
X7491Y-1671D01*
X7328Y-1508D01*
X7115Y-1420D01*
X6885Y-1419D01*
X6671Y-1508D01*
X6508Y-1671D01*
X6500Y-1691D01*
X6491Y-1671D01*
X6328Y-1508D01*
X6115Y-1420D01*
X5885Y-1419D01*
X5671Y-1508D01*
X5508Y-1671D01*
X5420Y-1884D01*
X5419Y-2114D01*
X5508Y-2328D01*
X5671Y-2491D01*
X5884Y-2579D01*
X6114Y-2580D01*
X6328Y-2491D01*
X6491Y-2328D01*
X6499Y-2308D01*
X6508Y-2328D01*
X6671Y-2491D01*
X6700Y-2503D01*
X6700Y-3557D01*
X6555Y-3702D01*
X6475Y-3895D01*
X6474Y-4103D01*
X6554Y-4297D01*
X6702Y-4444D01*
X6828Y-4497D01*
X6727Y-4539D01*
X6702Y-4632D01*
X7000Y-4929D01*
X7297Y-4632D01*
X7272Y-4539D01*
X7162Y-4500D01*
X7297Y-4445D01*
X7444Y-4297D01*
X7524Y-4104D01*
X7525Y-3896D01*
X7445Y-3703D01*
X7300Y-3557D01*
X7300Y-2503D01*
X7328Y-2491D01*
X7491Y-2328D01*
X7579Y-2115D01*
X7580Y-1885D01*
X7580Y-8177D01*
X7555Y-8202D01*
X7529Y-8263D01*
X7529Y-5075D01*
X7518Y-4867D01*
X7460Y-4727D01*
X7367Y-4702D01*
X7070Y-5000D01*
X7367Y-5297D01*
X7460Y-5272D01*
X7529Y-5075D01*
X7529Y-8263D01*
X7513Y-8302D01*
X7466Y-8188D01*
X7311Y-8034D01*
X7297Y-8027D01*
X7297Y-5367D01*
X7000Y-5070D01*
X6929Y-5141D01*
X6929Y-5000D01*
X6632Y-4702D01*
X6539Y-4727D01*
X6470Y-4924D01*
X6481Y-5132D01*
X6539Y-5272D01*
X6632Y-5297D01*
X6929Y-5000D01*
X6929Y-5141D01*
X6702Y-5367D01*
X6727Y-5460D01*
X6924Y-5529D01*
X7132Y-5518D01*
X7272Y-5460D01*
X7297Y-5367D01*
X7297Y-8027D01*
X7109Y-7950D01*
X6891Y-7949D01*
X6688Y-8033D01*
X6534Y-8188D01*
X6500Y-8269D01*
X6466Y-8188D01*
X6311Y-8034D01*
X6109Y-7950D01*
X5891Y-7949D01*
X5688Y-8033D01*
X5534Y-8188D01*
X5500Y-8269D01*
X5466Y-8188D01*
X5311Y-8034D01*
X5109Y-7950D01*
X4891Y-7949D01*
X4688Y-8033D01*
X4534Y-8188D01*
X4500Y-8269D01*
X4466Y-8188D01*
X4311Y-8034D01*
X4109Y-7950D01*
X3891Y-7949D01*
X3688Y-8033D01*
X3534Y-8188D01*
X3500Y-8269D01*
X3466Y-8188D01*
X3311Y-8034D01*
X3109Y-7950D01*
X2891Y-7949D01*
X2688Y-8033D01*
X2534Y-8188D01*
X2529Y-8197D01*
X2529Y-5075D01*
X2518Y-4867D01*
X2460Y-4727D01*
X2367Y-4702D01*
X2070Y-5000D01*
X2367Y-5297D01*
X2460Y-5272D01*
X2529Y-5075D01*
X2529Y-8197D01*
X2500Y-8269D01*
X2466Y-8188D01*
X2311Y-8034D01*
X2297Y-8027D01*
X2297Y-5367D01*
X2000Y-5070D01*
X1929Y-5141D01*
X1929Y-5000D01*
X1632Y-4702D01*
X1539Y-4727D01*
X1470Y-4924D01*
X1481Y-5132D01*
X1539Y-5272D01*
X1632Y-5297D01*
X1929Y-5000D01*
X1929Y-5141D01*
X1702Y-5367D01*
X1727Y-5460D01*
X1924Y-5529D01*
X2132Y-5518D01*
X2272Y-5460D01*
X2297Y-5367D01*
X2297Y-8027D01*
X2109Y-7950D01*
X1891Y-7949D01*
X1688Y-8033D01*
X1550Y-8172D01*
X1550Y-8150D01*
X1512Y-8058D01*
X1441Y-7988D01*
X1349Y-7950D01*
X1250Y-7949D01*
X650Y-7949D01*
X558Y-7987D01*
X529Y-8016D01*
X529Y-2349D01*
X671Y-2491D01*
X700Y-2503D01*
X700Y-3000D01*
X722Y-3114D01*
X787Y-3212D01*
X1075Y-3499D01*
X1074Y-3584D01*
X1139Y-3740D01*
X1258Y-3860D01*
X1415Y-3924D01*
X1475Y-3924D01*
X1474Y-4103D01*
X1554Y-4297D01*
X1702Y-4444D01*
X1828Y-4497D01*
X1727Y-4539D01*
X1702Y-4632D01*
X2000Y-4929D01*
X2297Y-4632D01*
X2272Y-4539D01*
X2162Y-4500D01*
X2297Y-4445D01*
X2444Y-4297D01*
X2524Y-4104D01*
X2525Y-3896D01*
X2445Y-3703D01*
X2300Y-3557D01*
X2300Y-2503D01*
X2328Y-2491D01*
X2491Y-2328D01*
X2499Y-2308D01*
X2508Y-2328D01*
X2671Y-2491D01*
X2700Y-2503D01*
X2700Y-5000D01*
X2722Y-5114D01*
X2787Y-5212D01*
X3475Y-5899D01*
X3474Y-6103D01*
X3554Y-6297D01*
X3702Y-6444D01*
X3774Y-6474D01*
X3675Y-6474D01*
X3583Y-6512D01*
X3513Y-6583D01*
X3475Y-6675D01*
X3474Y-6774D01*
X3474Y-7324D01*
X3512Y-7416D01*
X3583Y-7486D01*
X3675Y-7524D01*
X3774Y-7525D01*
X4324Y-7525D01*
X4416Y-7487D01*
X4486Y-7416D01*
X4524Y-7324D01*
X4524Y-7295D01*
X4614Y-7277D01*
X4614Y-7277D01*
X4712Y-7212D01*
X5212Y-6712D01*
X5212Y-6712D01*
X5277Y-6614D01*
X5299Y-6500D01*
X5300Y-6500D01*
X5300Y-3801D01*
X5360Y-3741D01*
X5424Y-3584D01*
X5425Y-3415D01*
X5360Y-3259D01*
X5241Y-3139D01*
X5084Y-3075D01*
X4915Y-3074D01*
X4759Y-3139D01*
X4639Y-3258D01*
X4575Y-3415D01*
X4574Y-3584D01*
X4639Y-3740D01*
X4700Y-3801D01*
X4700Y-6375D01*
X4529Y-6545D01*
X4529Y-5075D01*
X4518Y-4867D01*
X4460Y-4727D01*
X4367Y-4702D01*
X4070Y-5000D01*
X4367Y-5297D01*
X4460Y-5272D01*
X4529Y-5075D01*
X4529Y-6545D01*
X4488Y-6587D01*
X4487Y-6583D01*
X4416Y-6513D01*
X4324Y-6475D01*
X4225Y-6474D01*
X4225Y-6474D01*
X4297Y-6445D01*
X4444Y-6297D01*
X4524Y-6104D01*
X4525Y-5896D01*
X4445Y-5703D01*
X4297Y-5555D01*
X4171Y-5502D01*
X4272Y-5460D01*
X4297Y-5367D01*
X4000Y-5070D01*
X3994Y-5076D01*
X3923Y-5005D01*
X3929Y-5000D01*
X3632Y-4702D01*
X3539Y-4727D01*
X3470Y-4924D01*
X3477Y-5052D01*
X3300Y-4875D01*
X3300Y-2503D01*
X3328Y-2491D01*
X3491Y-2328D01*
X3499Y-2308D01*
X3508Y-2328D01*
X3671Y-2491D01*
X3700Y-2503D01*
X3700Y-3557D01*
X3555Y-3702D01*
X3475Y-3895D01*
X3474Y-4103D01*
X3554Y-4297D01*
X3702Y-4444D01*
X3828Y-4497D01*
X3727Y-4539D01*
X3702Y-4632D01*
X4000Y-4929D01*
X4297Y-4632D01*
X4272Y-4539D01*
X4162Y-4500D01*
X4297Y-4445D01*
X4444Y-4297D01*
X4524Y-4104D01*
X4525Y-3896D01*
X4445Y-3703D01*
X4300Y-3557D01*
X4300Y-2503D01*
X4328Y-2491D01*
X4491Y-2328D01*
X4579Y-2115D01*
X4580Y-1885D01*
X4491Y-1671D01*
X4328Y-1508D01*
X4115Y-1420D01*
X3885Y-1419D01*
X3671Y-1508D01*
X3508Y-1671D01*
X3500Y-1691D01*
X3491Y-1671D01*
X3328Y-1508D01*
X3115Y-1420D01*
X2885Y-1419D01*
X2671Y-1508D01*
X2508Y-1671D01*
X2500Y-1691D01*
X2491Y-1671D01*
X2328Y-1508D01*
X2115Y-1420D01*
X1885Y-1419D01*
X1671Y-1508D01*
X1508Y-1671D01*
X1500Y-1691D01*
X1491Y-1671D01*
X1328Y-1508D01*
X1115Y-1420D01*
X885Y-1419D01*
X671Y-1508D01*
X529Y-1650D01*
X529Y-529D01*
X40470Y-529D01*
X40470Y-3016D01*
M02*
