G04 (created by PCBNEW (2013-03-19 BZR 4004)-stable) date 13/06/2016 15:28:03*
%MOIN*%
G04 Gerber Fmt 3.4, Leading zero omitted, Abs format*
%FSLAX34Y34*%
G01*
G70*
G90*
G04 APERTURE LIST*
%ADD10C,0.006*%
%ADD11R,0.06X0.06*%
%ADD12C,0.06*%
%ADD13C,0.055*%
%ADD14R,0.055X0.055*%
%ADD15C,0.066*%
%ADD16C,0.035*%
%ADD17C,0.01*%
G04 APERTURE END LIST*
G54D10*
G54D11*
X1000Y-8500D03*
G54D12*
X2000Y-8500D03*
X3000Y-8500D03*
X4000Y-8500D03*
X5000Y-8500D03*
X6000Y-8500D03*
X7000Y-8500D03*
G54D13*
X8000Y-8500D03*
G54D12*
X9000Y-8500D03*
X10000Y-8500D03*
X11000Y-8500D03*
X12000Y-8500D03*
X13000Y-8500D03*
X14000Y-8500D03*
X15000Y-8500D03*
X16000Y-8500D03*
X17000Y-8500D03*
X18000Y-8500D03*
X19000Y-8500D03*
X20000Y-8500D03*
X21000Y-8500D03*
X22000Y-8500D03*
X23000Y-8500D03*
X25000Y-8500D03*
X26000Y-8500D03*
X27000Y-8500D03*
X28000Y-8500D03*
X29000Y-8500D03*
X30000Y-8500D03*
X31000Y-8500D03*
X32000Y-8500D03*
X33000Y-8500D03*
X34000Y-8500D03*
X35000Y-8500D03*
X36000Y-8500D03*
X37000Y-8500D03*
X38000Y-8500D03*
X39000Y-8500D03*
X40000Y-8500D03*
X24000Y-8500D03*
G54D14*
X4000Y-7000D03*
G54D13*
X4000Y-6000D03*
G54D14*
X28000Y-6000D03*
G54D13*
X29000Y-6000D03*
X30000Y-6000D03*
X31000Y-6000D03*
X32000Y-6000D03*
X33000Y-6000D03*
X34000Y-6000D03*
X34000Y-3000D03*
X33000Y-3000D03*
X32000Y-3000D03*
X31000Y-3000D03*
X30000Y-3000D03*
X29000Y-3000D03*
X28000Y-3000D03*
G54D14*
X19000Y-6000D03*
G54D13*
X20000Y-6000D03*
X21000Y-6000D03*
X22000Y-6000D03*
X23000Y-6000D03*
X24000Y-6000D03*
X25000Y-6000D03*
X25000Y-3000D03*
X24000Y-3000D03*
X23000Y-3000D03*
X22000Y-3000D03*
X21000Y-3000D03*
X20000Y-3000D03*
X19000Y-3000D03*
G54D15*
X1000Y-2000D03*
X2000Y-2000D03*
X3000Y-2000D03*
X4000Y-2000D03*
X6000Y-2000D03*
X7000Y-2000D03*
G54D14*
X17000Y-6000D03*
G54D13*
X17000Y-3000D03*
X23000Y-2000D03*
X24000Y-2000D03*
X2000Y-4000D03*
X2000Y-5000D03*
X4000Y-4000D03*
X4000Y-5000D03*
X7000Y-4000D03*
X7000Y-5000D03*
G54D11*
X40000Y-3500D03*
G54D12*
X39000Y-3500D03*
X38000Y-3500D03*
X37000Y-3500D03*
G54D11*
X37000Y-5500D03*
G54D12*
X38000Y-5500D03*
X39000Y-5500D03*
X40000Y-5500D03*
G54D11*
X37000Y-4500D03*
G54D12*
X38000Y-4500D03*
X39000Y-4500D03*
X40000Y-4500D03*
G54D11*
X36000Y-4500D03*
G54D14*
X9000Y-6000D03*
G54D13*
X10000Y-6000D03*
X11000Y-6000D03*
X12000Y-6000D03*
X13000Y-6000D03*
X14000Y-6000D03*
X15000Y-6000D03*
X15000Y-3000D03*
X14000Y-3000D03*
X13000Y-3000D03*
X12000Y-3000D03*
X11000Y-3000D03*
X10000Y-3000D03*
X9000Y-3000D03*
G54D16*
X26500Y-8000D03*
X20500Y-8000D03*
X1500Y-3500D03*
X5000Y-3500D03*
X22000Y-3500D03*
X33500Y-5000D03*
X25000Y-5000D03*
X15000Y-5000D03*
X25000Y-4000D03*
X32000Y-4000D03*
X32500Y-1500D03*
X12000Y-1000D03*
X12000Y-4000D03*
X33000Y-4500D03*
X18000Y-2000D03*
X2000Y-4000D03*
X35000Y-2500D03*
X16000Y-4000D03*
X24000Y-4000D03*
X27500Y-7500D03*
X14500Y-7500D03*
X32000Y-7000D03*
X15000Y-7000D03*
X10500Y-1500D03*
X16500Y-1500D03*
X19000Y-1500D03*
G54D17*
X26500Y-8000D02*
X25500Y-8000D01*
X26000Y-8000D02*
X25500Y-8000D01*
X25500Y-8000D02*
X20500Y-8000D01*
X1500Y-8000D02*
X1000Y-8500D01*
X26000Y-8000D02*
X1500Y-8000D01*
X8500Y-5500D02*
X4500Y-5500D01*
X4500Y-5500D02*
X4000Y-6000D01*
X31500Y-5500D02*
X8500Y-5500D01*
X37000Y-5500D02*
X31500Y-5500D01*
X31500Y-5500D02*
X31000Y-6000D01*
X40000Y-5500D02*
X39000Y-5500D01*
X39000Y-5500D02*
X38000Y-5500D01*
X38000Y-5500D02*
X37000Y-5500D01*
X29000Y-3500D02*
X29000Y-3000D01*
X2500Y-3500D02*
X1500Y-3500D01*
X5000Y-3500D02*
X2500Y-3500D01*
X22000Y-3500D02*
X8500Y-3500D01*
X8500Y-3500D02*
X5000Y-3500D01*
X37000Y-3500D02*
X29000Y-3500D01*
X29000Y-3500D02*
X22000Y-3500D01*
X40000Y-3500D02*
X39000Y-3500D01*
X39000Y-3500D02*
X38000Y-3500D01*
X38000Y-3500D02*
X37000Y-3500D01*
X21000Y-3000D02*
X21000Y-2500D01*
X14000Y-3000D02*
X14000Y-2500D01*
X24500Y-2500D02*
X21000Y-2500D01*
X21000Y-2500D02*
X14000Y-2500D01*
X14000Y-2500D02*
X6500Y-2500D01*
X6500Y-2500D02*
X6000Y-2000D01*
X24000Y-2000D02*
X24000Y-2500D01*
X25000Y-3000D02*
X24500Y-2500D01*
X24500Y-2500D02*
X24000Y-2500D01*
X7000Y-5000D02*
X4000Y-5000D01*
X4000Y-5000D02*
X2000Y-5000D01*
X15000Y-5000D02*
X7000Y-5000D01*
X25000Y-5000D02*
X33500Y-5000D01*
X15000Y-5000D02*
X25000Y-5000D01*
X25000Y-4000D02*
X32000Y-4000D01*
X32500Y-1500D02*
X32000Y-1000D01*
X32000Y-1000D02*
X12000Y-1000D01*
X15000Y-4500D02*
X14500Y-4000D01*
X14500Y-4000D02*
X12000Y-4000D01*
X33000Y-4500D02*
X15000Y-4500D01*
X18000Y-2000D02*
X23000Y-2000D01*
X30000Y-3000D02*
X30500Y-2500D01*
X30500Y-2500D02*
X35000Y-2500D01*
X23000Y-4000D02*
X24000Y-4000D01*
X16000Y-4000D02*
X23000Y-4000D01*
X27500Y-7500D02*
X14500Y-7500D01*
X32000Y-6000D02*
X31500Y-6500D01*
X24500Y-6500D02*
X24000Y-6000D01*
X31500Y-6500D02*
X24500Y-6500D01*
X11000Y-6000D02*
X11500Y-6500D01*
X18500Y-6500D02*
X19000Y-6000D01*
X11500Y-6500D02*
X18500Y-6500D01*
X21000Y-6000D02*
X22000Y-7000D01*
X22000Y-7000D02*
X32000Y-7000D01*
X20000Y-6000D02*
X19000Y-7000D01*
X19000Y-7000D02*
X15000Y-7000D01*
X28000Y-3000D02*
X26000Y-3000D01*
X26000Y-3000D02*
X24500Y-1500D01*
X19000Y-1500D02*
X16500Y-1500D01*
X16500Y-1500D02*
X10500Y-1500D01*
X24500Y-1500D02*
X19000Y-1500D01*
G54D10*
G36*
X15076Y-6005D02*
X15005Y-6076D01*
X15000Y-6070D01*
X14994Y-6076D01*
X14923Y-6005D01*
X14929Y-6000D01*
X14923Y-5994D01*
X14994Y-5923D01*
X15000Y-5929D01*
X15005Y-5923D01*
X15076Y-5994D01*
X15070Y-6000D01*
X15076Y-6005D01*
X15076Y-6005D01*
G37*
G54D17*
X15076Y-6005D02*
X15005Y-6076D01*
X15000Y-6070D01*
X14994Y-6076D01*
X14923Y-6005D01*
X14929Y-6000D01*
X14923Y-5994D01*
X14994Y-5923D01*
X15000Y-5929D01*
X15005Y-5923D01*
X15076Y-5994D01*
X15070Y-6000D01*
X15076Y-6005D01*
G54D10*
G36*
X17698Y-8970D02*
X17290Y-8970D01*
X17315Y-8885D01*
X17000Y-8570D01*
X16684Y-8885D01*
X16709Y-8970D01*
X16301Y-8970D01*
X16311Y-8966D01*
X16465Y-8811D01*
X16497Y-8736D01*
X16518Y-8787D01*
X16614Y-8815D01*
X16929Y-8500D01*
X16923Y-8494D01*
X16994Y-8423D01*
X17000Y-8429D01*
X17005Y-8423D01*
X17076Y-8494D01*
X17070Y-8500D01*
X17385Y-8815D01*
X17481Y-8787D01*
X17500Y-8732D01*
X17533Y-8811D01*
X17688Y-8965D01*
X17698Y-8970D01*
X17698Y-8970D01*
G37*
G54D17*
X17698Y-8970D02*
X17290Y-8970D01*
X17315Y-8885D01*
X17000Y-8570D01*
X16684Y-8885D01*
X16709Y-8970D01*
X16301Y-8970D01*
X16311Y-8966D01*
X16465Y-8811D01*
X16497Y-8736D01*
X16518Y-8787D01*
X16614Y-8815D01*
X16929Y-8500D01*
X16923Y-8494D01*
X16994Y-8423D01*
X17000Y-8429D01*
X17005Y-8423D01*
X17076Y-8494D01*
X17070Y-8500D01*
X17385Y-8815D01*
X17481Y-8787D01*
X17500Y-8732D01*
X17533Y-8811D01*
X17688Y-8965D01*
X17698Y-8970D01*
G54D10*
G36*
X25076Y-6005D02*
X25005Y-6076D01*
X25000Y-6070D01*
X24994Y-6076D01*
X24923Y-6005D01*
X24929Y-6000D01*
X24923Y-5994D01*
X24994Y-5923D01*
X25000Y-5929D01*
X25005Y-5923D01*
X25076Y-5994D01*
X25070Y-6000D01*
X25076Y-6005D01*
X25076Y-6005D01*
G37*
G54D17*
X25076Y-6005D02*
X25005Y-6076D01*
X25000Y-6070D01*
X24994Y-6076D01*
X24923Y-6005D01*
X24929Y-6000D01*
X24923Y-5994D01*
X24994Y-5923D01*
X25000Y-5929D01*
X25005Y-5923D01*
X25076Y-5994D01*
X25070Y-6000D01*
X25076Y-6005D01*
G54D10*
G36*
X40470Y-3016D02*
X40441Y-2988D01*
X40349Y-2950D01*
X40250Y-2949D01*
X39650Y-2949D01*
X39558Y-2987D01*
X39488Y-3058D01*
X39450Y-3150D01*
X39450Y-3172D01*
X39311Y-3034D01*
X39109Y-2950D01*
X38891Y-2949D01*
X38688Y-3033D01*
X38534Y-3188D01*
X38529Y-3200D01*
X38471Y-3200D01*
X38466Y-3188D01*
X38311Y-3034D01*
X38109Y-2950D01*
X37891Y-2949D01*
X37688Y-3033D01*
X37534Y-3188D01*
X37529Y-3200D01*
X37471Y-3200D01*
X37466Y-3188D01*
X37311Y-3034D01*
X37109Y-2950D01*
X36891Y-2949D01*
X36688Y-3033D01*
X36534Y-3188D01*
X36529Y-3200D01*
X34485Y-3200D01*
X34524Y-3104D01*
X34525Y-2896D01*
X34485Y-2800D01*
X34698Y-2800D01*
X34758Y-2860D01*
X34915Y-2924D01*
X35084Y-2925D01*
X35240Y-2860D01*
X35360Y-2741D01*
X35424Y-2584D01*
X35425Y-2415D01*
X35360Y-2259D01*
X35241Y-2139D01*
X35084Y-2075D01*
X34915Y-2074D01*
X34759Y-2139D01*
X34698Y-2200D01*
X30500Y-2200D01*
X30385Y-2222D01*
X30287Y-2287D01*
X30100Y-2475D01*
X29896Y-2474D01*
X29703Y-2554D01*
X29555Y-2702D01*
X29499Y-2835D01*
X29445Y-2703D01*
X29297Y-2555D01*
X29104Y-2475D01*
X28896Y-2474D01*
X28703Y-2554D01*
X28555Y-2702D01*
X28499Y-2835D01*
X28445Y-2703D01*
X28297Y-2555D01*
X28104Y-2475D01*
X27896Y-2474D01*
X27703Y-2554D01*
X27557Y-2700D01*
X26124Y-2700D01*
X24724Y-1300D01*
X31875Y-1300D01*
X32075Y-1499D01*
X32074Y-1584D01*
X32139Y-1740D01*
X32258Y-1860D01*
X32415Y-1924D01*
X32584Y-1925D01*
X32740Y-1860D01*
X32860Y-1741D01*
X32924Y-1584D01*
X32925Y-1415D01*
X32860Y-1259D01*
X32741Y-1139D01*
X32584Y-1075D01*
X32499Y-1074D01*
X32212Y-787D01*
X32114Y-722D01*
X32000Y-700D01*
X12301Y-700D01*
X12241Y-639D01*
X12084Y-575D01*
X11915Y-574D01*
X11759Y-639D01*
X11639Y-758D01*
X11575Y-915D01*
X11574Y-1084D01*
X11622Y-1200D01*
X10801Y-1200D01*
X10741Y-1139D01*
X10584Y-1075D01*
X10415Y-1074D01*
X10259Y-1139D01*
X10139Y-1258D01*
X10075Y-1415D01*
X10074Y-1584D01*
X10139Y-1740D01*
X10258Y-1860D01*
X10415Y-1924D01*
X10584Y-1925D01*
X10740Y-1860D01*
X10801Y-1800D01*
X16198Y-1800D01*
X16258Y-1860D01*
X16415Y-1924D01*
X16584Y-1925D01*
X16740Y-1860D01*
X16801Y-1800D01*
X17622Y-1800D01*
X17575Y-1915D01*
X17574Y-2084D01*
X17622Y-2200D01*
X14000Y-2200D01*
X7544Y-2200D01*
X7579Y-2115D01*
X7580Y-1885D01*
X7491Y-1671D01*
X7328Y-1508D01*
X7115Y-1420D01*
X6885Y-1419D01*
X6671Y-1508D01*
X6508Y-1671D01*
X6500Y-1691D01*
X6491Y-1671D01*
X6328Y-1508D01*
X6115Y-1420D01*
X5885Y-1419D01*
X5671Y-1508D01*
X5508Y-1671D01*
X5420Y-1884D01*
X5419Y-2114D01*
X5508Y-2328D01*
X5671Y-2491D01*
X5884Y-2579D01*
X6114Y-2580D01*
X6143Y-2568D01*
X6287Y-2712D01*
X6287Y-2712D01*
X6385Y-2777D01*
X6500Y-2800D01*
X8514Y-2800D01*
X8475Y-2895D01*
X8474Y-3103D01*
X8514Y-3200D01*
X8500Y-3200D01*
X5301Y-3200D01*
X5241Y-3139D01*
X5084Y-3075D01*
X4915Y-3074D01*
X4759Y-3139D01*
X4698Y-3200D01*
X2500Y-3200D01*
X1801Y-3200D01*
X1741Y-3139D01*
X1584Y-3075D01*
X1415Y-3074D01*
X1259Y-3139D01*
X1139Y-3258D01*
X1075Y-3415D01*
X1074Y-3584D01*
X1139Y-3740D01*
X1258Y-3860D01*
X1415Y-3924D01*
X1475Y-3924D01*
X1474Y-4103D01*
X1554Y-4297D01*
X1702Y-4444D01*
X1828Y-4497D01*
X1727Y-4539D01*
X1702Y-4632D01*
X2000Y-4929D01*
X2297Y-4632D01*
X2272Y-4539D01*
X2162Y-4500D01*
X2297Y-4445D01*
X2444Y-4297D01*
X2524Y-4104D01*
X2525Y-3896D01*
X2485Y-3800D01*
X2500Y-3800D01*
X3514Y-3800D01*
X3475Y-3895D01*
X3474Y-4103D01*
X3554Y-4297D01*
X3702Y-4444D01*
X3828Y-4497D01*
X3727Y-4539D01*
X3702Y-4632D01*
X4000Y-4929D01*
X4297Y-4632D01*
X4272Y-4539D01*
X4162Y-4500D01*
X4297Y-4445D01*
X4444Y-4297D01*
X4524Y-4104D01*
X4525Y-3896D01*
X4485Y-3800D01*
X4698Y-3800D01*
X4758Y-3860D01*
X4915Y-3924D01*
X5084Y-3925D01*
X5240Y-3860D01*
X5301Y-3800D01*
X6514Y-3800D01*
X6475Y-3895D01*
X6474Y-4103D01*
X6554Y-4297D01*
X6702Y-4444D01*
X6828Y-4497D01*
X6727Y-4539D01*
X6702Y-4632D01*
X7000Y-4929D01*
X7297Y-4632D01*
X7272Y-4539D01*
X7162Y-4500D01*
X7297Y-4445D01*
X7444Y-4297D01*
X7524Y-4104D01*
X7525Y-3896D01*
X7485Y-3800D01*
X8500Y-3800D01*
X11622Y-3800D01*
X11575Y-3915D01*
X11574Y-4084D01*
X11639Y-4240D01*
X11758Y-4360D01*
X11915Y-4424D01*
X12084Y-4425D01*
X12240Y-4360D01*
X12301Y-4300D01*
X14375Y-4300D01*
X14787Y-4712D01*
X14787Y-4712D01*
X14885Y-4777D01*
X15000Y-4800D01*
X32698Y-4800D01*
X32758Y-4860D01*
X32915Y-4924D01*
X33084Y-4925D01*
X33240Y-4860D01*
X33360Y-4741D01*
X33424Y-4584D01*
X33425Y-4415D01*
X33360Y-4259D01*
X33241Y-4139D01*
X33084Y-4075D01*
X32915Y-4074D01*
X32759Y-4139D01*
X32698Y-4200D01*
X32377Y-4200D01*
X32424Y-4084D01*
X32425Y-3915D01*
X32377Y-3800D01*
X36528Y-3800D01*
X36533Y-3811D01*
X36672Y-3949D01*
X36650Y-3949D01*
X36558Y-3987D01*
X36499Y-4046D01*
X36441Y-3988D01*
X36349Y-3950D01*
X36250Y-3949D01*
X35650Y-3949D01*
X35558Y-3987D01*
X35488Y-4058D01*
X35450Y-4150D01*
X35449Y-4249D01*
X35449Y-4849D01*
X35487Y-4941D01*
X35558Y-5011D01*
X35650Y-5049D01*
X35749Y-5050D01*
X36349Y-5050D01*
X36441Y-5012D01*
X36500Y-4953D01*
X36546Y-5000D01*
X36488Y-5058D01*
X36450Y-5150D01*
X36450Y-5200D01*
X31500Y-5200D01*
X8500Y-5200D01*
X7486Y-5200D01*
X7529Y-5075D01*
X7518Y-4867D01*
X7460Y-4727D01*
X7367Y-4702D01*
X7070Y-5000D01*
X7076Y-5005D01*
X7005Y-5076D01*
X7000Y-5070D01*
X6994Y-5076D01*
X6923Y-5005D01*
X6929Y-5000D01*
X6632Y-4702D01*
X6539Y-4727D01*
X6470Y-4924D01*
X6481Y-5132D01*
X6509Y-5200D01*
X4500Y-5200D01*
X4485Y-5202D01*
X4529Y-5075D01*
X4518Y-4867D01*
X4460Y-4727D01*
X4367Y-4702D01*
X4070Y-5000D01*
X4076Y-5005D01*
X4005Y-5076D01*
X4000Y-5070D01*
X3929Y-5141D01*
X3929Y-5000D01*
X3632Y-4702D01*
X3539Y-4727D01*
X3470Y-4924D01*
X3481Y-5132D01*
X3539Y-5272D01*
X3632Y-5297D01*
X3929Y-5000D01*
X3929Y-5141D01*
X3702Y-5367D01*
X3727Y-5460D01*
X3837Y-5499D01*
X3703Y-5554D01*
X3555Y-5702D01*
X3475Y-5895D01*
X3474Y-6103D01*
X3554Y-6297D01*
X3702Y-6444D01*
X3774Y-6474D01*
X3675Y-6474D01*
X3583Y-6512D01*
X3513Y-6583D01*
X3475Y-6675D01*
X3474Y-6774D01*
X3474Y-7324D01*
X3512Y-7416D01*
X3583Y-7486D01*
X3675Y-7524D01*
X3774Y-7525D01*
X4324Y-7525D01*
X4416Y-7487D01*
X4486Y-7416D01*
X4524Y-7324D01*
X4525Y-7225D01*
X4525Y-6675D01*
X4487Y-6583D01*
X4416Y-6513D01*
X4324Y-6475D01*
X4225Y-6474D01*
X4225Y-6474D01*
X4297Y-6445D01*
X4444Y-6297D01*
X4524Y-6104D01*
X4525Y-5899D01*
X4624Y-5800D01*
X8474Y-5800D01*
X8474Y-6324D01*
X8512Y-6416D01*
X8583Y-6486D01*
X8675Y-6524D01*
X8774Y-6525D01*
X9324Y-6525D01*
X9416Y-6487D01*
X9486Y-6416D01*
X9524Y-6324D01*
X9525Y-6225D01*
X9525Y-6225D01*
X9554Y-6297D01*
X9702Y-6444D01*
X9895Y-6524D01*
X10103Y-6525D01*
X10297Y-6445D01*
X10444Y-6297D01*
X10500Y-6164D01*
X10554Y-6297D01*
X10702Y-6444D01*
X10895Y-6524D01*
X11100Y-6525D01*
X11287Y-6712D01*
X11287Y-6712D01*
X11385Y-6777D01*
X11500Y-6800D01*
X14622Y-6800D01*
X14575Y-6915D01*
X14574Y-7075D01*
X14415Y-7074D01*
X14259Y-7139D01*
X14139Y-7258D01*
X14075Y-7415D01*
X14074Y-7584D01*
X14122Y-7700D01*
X2529Y-7700D01*
X2529Y-5075D01*
X2518Y-4867D01*
X2460Y-4727D01*
X2367Y-4702D01*
X2070Y-5000D01*
X2367Y-5297D01*
X2460Y-5272D01*
X2529Y-5075D01*
X2529Y-7700D01*
X2297Y-7700D01*
X2297Y-5367D01*
X2000Y-5070D01*
X1929Y-5141D01*
X1929Y-5000D01*
X1632Y-4702D01*
X1539Y-4727D01*
X1470Y-4924D01*
X1481Y-5132D01*
X1539Y-5272D01*
X1632Y-5297D01*
X1929Y-5000D01*
X1929Y-5141D01*
X1702Y-5367D01*
X1727Y-5460D01*
X1924Y-5529D01*
X2132Y-5518D01*
X2272Y-5460D01*
X2297Y-5367D01*
X2297Y-7700D01*
X1500Y-7700D01*
X1385Y-7722D01*
X1287Y-7787D01*
X1125Y-7949D01*
X650Y-7949D01*
X558Y-7987D01*
X529Y-8016D01*
X529Y-2349D01*
X671Y-2491D01*
X884Y-2579D01*
X1114Y-2580D01*
X1328Y-2491D01*
X1491Y-2328D01*
X1499Y-2308D01*
X1508Y-2328D01*
X1671Y-2491D01*
X1884Y-2579D01*
X2114Y-2580D01*
X2328Y-2491D01*
X2491Y-2328D01*
X2499Y-2308D01*
X2508Y-2328D01*
X2671Y-2491D01*
X2884Y-2579D01*
X3114Y-2580D01*
X3328Y-2491D01*
X3491Y-2328D01*
X3499Y-2308D01*
X3508Y-2328D01*
X3671Y-2491D01*
X3884Y-2579D01*
X4114Y-2580D01*
X4328Y-2491D01*
X4491Y-2328D01*
X4579Y-2115D01*
X4580Y-1885D01*
X4491Y-1671D01*
X4328Y-1508D01*
X4115Y-1420D01*
X3885Y-1419D01*
X3671Y-1508D01*
X3508Y-1671D01*
X3500Y-1691D01*
X3491Y-1671D01*
X3328Y-1508D01*
X3115Y-1420D01*
X2885Y-1419D01*
X2671Y-1508D01*
X2508Y-1671D01*
X2500Y-1691D01*
X2491Y-1671D01*
X2328Y-1508D01*
X2115Y-1420D01*
X1885Y-1419D01*
X1671Y-1508D01*
X1508Y-1671D01*
X1500Y-1691D01*
X1491Y-1671D01*
X1328Y-1508D01*
X1115Y-1420D01*
X885Y-1419D01*
X671Y-1508D01*
X529Y-1650D01*
X529Y-529D01*
X40470Y-529D01*
X40470Y-3016D01*
X40470Y-3016D01*
G37*
G54D17*
X40470Y-3016D02*
X40441Y-2988D01*
X40349Y-2950D01*
X40250Y-2949D01*
X39650Y-2949D01*
X39558Y-2987D01*
X39488Y-3058D01*
X39450Y-3150D01*
X39450Y-3172D01*
X39311Y-3034D01*
X39109Y-2950D01*
X38891Y-2949D01*
X38688Y-3033D01*
X38534Y-3188D01*
X38529Y-3200D01*
X38471Y-3200D01*
X38466Y-3188D01*
X38311Y-3034D01*
X38109Y-2950D01*
X37891Y-2949D01*
X37688Y-3033D01*
X37534Y-3188D01*
X37529Y-3200D01*
X37471Y-3200D01*
X37466Y-3188D01*
X37311Y-3034D01*
X37109Y-2950D01*
X36891Y-2949D01*
X36688Y-3033D01*
X36534Y-3188D01*
X36529Y-3200D01*
X34485Y-3200D01*
X34524Y-3104D01*
X34525Y-2896D01*
X34485Y-2800D01*
X34698Y-2800D01*
X34758Y-2860D01*
X34915Y-2924D01*
X35084Y-2925D01*
X35240Y-2860D01*
X35360Y-2741D01*
X35424Y-2584D01*
X35425Y-2415D01*
X35360Y-2259D01*
X35241Y-2139D01*
X35084Y-2075D01*
X34915Y-2074D01*
X34759Y-2139D01*
X34698Y-2200D01*
X30500Y-2200D01*
X30385Y-2222D01*
X30287Y-2287D01*
X30100Y-2475D01*
X29896Y-2474D01*
X29703Y-2554D01*
X29555Y-2702D01*
X29499Y-2835D01*
X29445Y-2703D01*
X29297Y-2555D01*
X29104Y-2475D01*
X28896Y-2474D01*
X28703Y-2554D01*
X28555Y-2702D01*
X28499Y-2835D01*
X28445Y-2703D01*
X28297Y-2555D01*
X28104Y-2475D01*
X27896Y-2474D01*
X27703Y-2554D01*
X27557Y-2700D01*
X26124Y-2700D01*
X24724Y-1300D01*
X31875Y-1300D01*
X32075Y-1499D01*
X32074Y-1584D01*
X32139Y-1740D01*
X32258Y-1860D01*
X32415Y-1924D01*
X32584Y-1925D01*
X32740Y-1860D01*
X32860Y-1741D01*
X32924Y-1584D01*
X32925Y-1415D01*
X32860Y-1259D01*
X32741Y-1139D01*
X32584Y-1075D01*
X32499Y-1074D01*
X32212Y-787D01*
X32114Y-722D01*
X32000Y-700D01*
X12301Y-700D01*
X12241Y-639D01*
X12084Y-575D01*
X11915Y-574D01*
X11759Y-639D01*
X11639Y-758D01*
X11575Y-915D01*
X11574Y-1084D01*
X11622Y-1200D01*
X10801Y-1200D01*
X10741Y-1139D01*
X10584Y-1075D01*
X10415Y-1074D01*
X10259Y-1139D01*
X10139Y-1258D01*
X10075Y-1415D01*
X10074Y-1584D01*
X10139Y-1740D01*
X10258Y-1860D01*
X10415Y-1924D01*
X10584Y-1925D01*
X10740Y-1860D01*
X10801Y-1800D01*
X16198Y-1800D01*
X16258Y-1860D01*
X16415Y-1924D01*
X16584Y-1925D01*
X16740Y-1860D01*
X16801Y-1800D01*
X17622Y-1800D01*
X17575Y-1915D01*
X17574Y-2084D01*
X17622Y-2200D01*
X14000Y-2200D01*
X7544Y-2200D01*
X7579Y-2115D01*
X7580Y-1885D01*
X7491Y-1671D01*
X7328Y-1508D01*
X7115Y-1420D01*
X6885Y-1419D01*
X6671Y-1508D01*
X6508Y-1671D01*
X6500Y-1691D01*
X6491Y-1671D01*
X6328Y-1508D01*
X6115Y-1420D01*
X5885Y-1419D01*
X5671Y-1508D01*
X5508Y-1671D01*
X5420Y-1884D01*
X5419Y-2114D01*
X5508Y-2328D01*
X5671Y-2491D01*
X5884Y-2579D01*
X6114Y-2580D01*
X6143Y-2568D01*
X6287Y-2712D01*
X6287Y-2712D01*
X6385Y-2777D01*
X6500Y-2800D01*
X8514Y-2800D01*
X8475Y-2895D01*
X8474Y-3103D01*
X8514Y-3200D01*
X8500Y-3200D01*
X5301Y-3200D01*
X5241Y-3139D01*
X5084Y-3075D01*
X4915Y-3074D01*
X4759Y-3139D01*
X4698Y-3200D01*
X2500Y-3200D01*
X1801Y-3200D01*
X1741Y-3139D01*
X1584Y-3075D01*
X1415Y-3074D01*
X1259Y-3139D01*
X1139Y-3258D01*
X1075Y-3415D01*
X1074Y-3584D01*
X1139Y-3740D01*
X1258Y-3860D01*
X1415Y-3924D01*
X1475Y-3924D01*
X1474Y-4103D01*
X1554Y-4297D01*
X1702Y-4444D01*
X1828Y-4497D01*
X1727Y-4539D01*
X1702Y-4632D01*
X2000Y-4929D01*
X2297Y-4632D01*
X2272Y-4539D01*
X2162Y-4500D01*
X2297Y-4445D01*
X2444Y-4297D01*
X2524Y-4104D01*
X2525Y-3896D01*
X2485Y-3800D01*
X2500Y-3800D01*
X3514Y-3800D01*
X3475Y-3895D01*
X3474Y-4103D01*
X3554Y-4297D01*
X3702Y-4444D01*
X3828Y-4497D01*
X3727Y-4539D01*
X3702Y-4632D01*
X4000Y-4929D01*
X4297Y-4632D01*
X4272Y-4539D01*
X4162Y-4500D01*
X4297Y-4445D01*
X4444Y-4297D01*
X4524Y-4104D01*
X4525Y-3896D01*
X4485Y-3800D01*
X4698Y-3800D01*
X4758Y-3860D01*
X4915Y-3924D01*
X5084Y-3925D01*
X5240Y-3860D01*
X5301Y-3800D01*
X6514Y-3800D01*
X6475Y-3895D01*
X6474Y-4103D01*
X6554Y-4297D01*
X6702Y-4444D01*
X6828Y-4497D01*
X6727Y-4539D01*
X6702Y-4632D01*
X7000Y-4929D01*
X7297Y-4632D01*
X7272Y-4539D01*
X7162Y-4500D01*
X7297Y-4445D01*
X7444Y-4297D01*
X7524Y-4104D01*
X7525Y-3896D01*
X7485Y-3800D01*
X8500Y-3800D01*
X11622Y-3800D01*
X11575Y-3915D01*
X11574Y-4084D01*
X11639Y-4240D01*
X11758Y-4360D01*
X11915Y-4424D01*
X12084Y-4425D01*
X12240Y-4360D01*
X12301Y-4300D01*
X14375Y-4300D01*
X14787Y-4712D01*
X14787Y-4712D01*
X14885Y-4777D01*
X15000Y-4800D01*
X32698Y-4800D01*
X32758Y-4860D01*
X32915Y-4924D01*
X33084Y-4925D01*
X33240Y-4860D01*
X33360Y-4741D01*
X33424Y-4584D01*
X33425Y-4415D01*
X33360Y-4259D01*
X33241Y-4139D01*
X33084Y-4075D01*
X32915Y-4074D01*
X32759Y-4139D01*
X32698Y-4200D01*
X32377Y-4200D01*
X32424Y-4084D01*
X32425Y-3915D01*
X32377Y-3800D01*
X36528Y-3800D01*
X36533Y-3811D01*
X36672Y-3949D01*
X36650Y-3949D01*
X36558Y-3987D01*
X36499Y-4046D01*
X36441Y-3988D01*
X36349Y-3950D01*
X36250Y-3949D01*
X35650Y-3949D01*
X35558Y-3987D01*
X35488Y-4058D01*
X35450Y-4150D01*
X35449Y-4249D01*
X35449Y-4849D01*
X35487Y-4941D01*
X35558Y-5011D01*
X35650Y-5049D01*
X35749Y-5050D01*
X36349Y-5050D01*
X36441Y-5012D01*
X36500Y-4953D01*
X36546Y-5000D01*
X36488Y-5058D01*
X36450Y-5150D01*
X36450Y-5200D01*
X31500Y-5200D01*
X8500Y-5200D01*
X7486Y-5200D01*
X7529Y-5075D01*
X7518Y-4867D01*
X7460Y-4727D01*
X7367Y-4702D01*
X7070Y-5000D01*
X7076Y-5005D01*
X7005Y-5076D01*
X7000Y-5070D01*
X6994Y-5076D01*
X6923Y-5005D01*
X6929Y-5000D01*
X6632Y-4702D01*
X6539Y-4727D01*
X6470Y-4924D01*
X6481Y-5132D01*
X6509Y-5200D01*
X4500Y-5200D01*
X4485Y-5202D01*
X4529Y-5075D01*
X4518Y-4867D01*
X4460Y-4727D01*
X4367Y-4702D01*
X4070Y-5000D01*
X4076Y-5005D01*
X4005Y-5076D01*
X4000Y-5070D01*
X3929Y-5141D01*
X3929Y-5000D01*
X3632Y-4702D01*
X3539Y-4727D01*
X3470Y-4924D01*
X3481Y-5132D01*
X3539Y-5272D01*
X3632Y-5297D01*
X3929Y-5000D01*
X3929Y-5141D01*
X3702Y-5367D01*
X3727Y-5460D01*
X3837Y-5499D01*
X3703Y-5554D01*
X3555Y-5702D01*
X3475Y-5895D01*
X3474Y-6103D01*
X3554Y-6297D01*
X3702Y-6444D01*
X3774Y-6474D01*
X3675Y-6474D01*
X3583Y-6512D01*
X3513Y-6583D01*
X3475Y-6675D01*
X3474Y-6774D01*
X3474Y-7324D01*
X3512Y-7416D01*
X3583Y-7486D01*
X3675Y-7524D01*
X3774Y-7525D01*
X4324Y-7525D01*
X4416Y-7487D01*
X4486Y-7416D01*
X4524Y-7324D01*
X4525Y-7225D01*
X4525Y-6675D01*
X4487Y-6583D01*
X4416Y-6513D01*
X4324Y-6475D01*
X4225Y-6474D01*
X4225Y-6474D01*
X4297Y-6445D01*
X4444Y-6297D01*
X4524Y-6104D01*
X4525Y-5899D01*
X4624Y-5800D01*
X8474Y-5800D01*
X8474Y-6324D01*
X8512Y-6416D01*
X8583Y-6486D01*
X8675Y-6524D01*
X8774Y-6525D01*
X9324Y-6525D01*
X9416Y-6487D01*
X9486Y-6416D01*
X9524Y-6324D01*
X9525Y-6225D01*
X9525Y-6225D01*
X9554Y-6297D01*
X9702Y-6444D01*
X9895Y-6524D01*
X10103Y-6525D01*
X10297Y-6445D01*
X10444Y-6297D01*
X10500Y-6164D01*
X10554Y-6297D01*
X10702Y-6444D01*
X10895Y-6524D01*
X11100Y-6525D01*
X11287Y-6712D01*
X11287Y-6712D01*
X11385Y-6777D01*
X11500Y-6800D01*
X14622Y-6800D01*
X14575Y-6915D01*
X14574Y-7075D01*
X14415Y-7074D01*
X14259Y-7139D01*
X14139Y-7258D01*
X14075Y-7415D01*
X14074Y-7584D01*
X14122Y-7700D01*
X2529Y-7700D01*
X2529Y-5075D01*
X2518Y-4867D01*
X2460Y-4727D01*
X2367Y-4702D01*
X2070Y-5000D01*
X2367Y-5297D01*
X2460Y-5272D01*
X2529Y-5075D01*
X2529Y-7700D01*
X2297Y-7700D01*
X2297Y-5367D01*
X2000Y-5070D01*
X1929Y-5141D01*
X1929Y-5000D01*
X1632Y-4702D01*
X1539Y-4727D01*
X1470Y-4924D01*
X1481Y-5132D01*
X1539Y-5272D01*
X1632Y-5297D01*
X1929Y-5000D01*
X1929Y-5141D01*
X1702Y-5367D01*
X1727Y-5460D01*
X1924Y-5529D01*
X2132Y-5518D01*
X2272Y-5460D01*
X2297Y-5367D01*
X2297Y-7700D01*
X1500Y-7700D01*
X1385Y-7722D01*
X1287Y-7787D01*
X1125Y-7949D01*
X650Y-7949D01*
X558Y-7987D01*
X529Y-8016D01*
X529Y-2349D01*
X671Y-2491D01*
X884Y-2579D01*
X1114Y-2580D01*
X1328Y-2491D01*
X1491Y-2328D01*
X1499Y-2308D01*
X1508Y-2328D01*
X1671Y-2491D01*
X1884Y-2579D01*
X2114Y-2580D01*
X2328Y-2491D01*
X2491Y-2328D01*
X2499Y-2308D01*
X2508Y-2328D01*
X2671Y-2491D01*
X2884Y-2579D01*
X3114Y-2580D01*
X3328Y-2491D01*
X3491Y-2328D01*
X3499Y-2308D01*
X3508Y-2328D01*
X3671Y-2491D01*
X3884Y-2579D01*
X4114Y-2580D01*
X4328Y-2491D01*
X4491Y-2328D01*
X4579Y-2115D01*
X4580Y-1885D01*
X4491Y-1671D01*
X4328Y-1508D01*
X4115Y-1420D01*
X3885Y-1419D01*
X3671Y-1508D01*
X3508Y-1671D01*
X3500Y-1691D01*
X3491Y-1671D01*
X3328Y-1508D01*
X3115Y-1420D01*
X2885Y-1419D01*
X2671Y-1508D01*
X2508Y-1671D01*
X2500Y-1691D01*
X2491Y-1671D01*
X2328Y-1508D01*
X2115Y-1420D01*
X1885Y-1419D01*
X1671Y-1508D01*
X1508Y-1671D01*
X1500Y-1691D01*
X1491Y-1671D01*
X1328Y-1508D01*
X1115Y-1420D01*
X885Y-1419D01*
X671Y-1508D01*
X529Y-1650D01*
X529Y-529D01*
X40470Y-529D01*
X40470Y-3016D01*
G54D10*
G36*
X40470Y-8198D02*
X40466Y-8188D01*
X40311Y-8034D01*
X40109Y-7950D01*
X39891Y-7949D01*
X39688Y-8033D01*
X39534Y-8188D01*
X39500Y-8269D01*
X39466Y-8188D01*
X39311Y-8034D01*
X39109Y-7950D01*
X38891Y-7949D01*
X38688Y-8033D01*
X38534Y-8188D01*
X38500Y-8269D01*
X38466Y-8188D01*
X38311Y-8034D01*
X38109Y-7950D01*
X37891Y-7949D01*
X37688Y-8033D01*
X37534Y-8188D01*
X37500Y-8269D01*
X37466Y-8188D01*
X37311Y-8034D01*
X37109Y-7950D01*
X36891Y-7949D01*
X36688Y-8033D01*
X36534Y-8188D01*
X36500Y-8269D01*
X36466Y-8188D01*
X36311Y-8034D01*
X36109Y-7950D01*
X35891Y-7949D01*
X35688Y-8033D01*
X35534Y-8188D01*
X35500Y-8269D01*
X35466Y-8188D01*
X35311Y-8034D01*
X35109Y-7950D01*
X34891Y-7949D01*
X34688Y-8033D01*
X34534Y-8188D01*
X34500Y-8269D01*
X34466Y-8188D01*
X34311Y-8034D01*
X34297Y-8027D01*
X34297Y-6367D01*
X34000Y-6070D01*
X33702Y-6367D01*
X33727Y-6460D01*
X33924Y-6529D01*
X34132Y-6518D01*
X34272Y-6460D01*
X34297Y-6367D01*
X34297Y-8027D01*
X34109Y-7950D01*
X33891Y-7949D01*
X33688Y-8033D01*
X33534Y-8188D01*
X33500Y-8269D01*
X33466Y-8188D01*
X33311Y-8034D01*
X33109Y-7950D01*
X32891Y-7949D01*
X32688Y-8033D01*
X32534Y-8188D01*
X32500Y-8269D01*
X32466Y-8188D01*
X32311Y-8034D01*
X32109Y-7950D01*
X31891Y-7949D01*
X31688Y-8033D01*
X31534Y-8188D01*
X31500Y-8269D01*
X31466Y-8188D01*
X31311Y-8034D01*
X31109Y-7950D01*
X30891Y-7949D01*
X30688Y-8033D01*
X30534Y-8188D01*
X30500Y-8269D01*
X30466Y-8188D01*
X30311Y-8034D01*
X30109Y-7950D01*
X29891Y-7949D01*
X29688Y-8033D01*
X29534Y-8188D01*
X29500Y-8269D01*
X29466Y-8188D01*
X29311Y-8034D01*
X29109Y-7950D01*
X28891Y-7949D01*
X28688Y-8033D01*
X28534Y-8188D01*
X28500Y-8269D01*
X28466Y-8188D01*
X28311Y-8034D01*
X28109Y-7950D01*
X27891Y-7949D01*
X27688Y-8033D01*
X27534Y-8188D01*
X27500Y-8269D01*
X27466Y-8188D01*
X27311Y-8034D01*
X27109Y-7950D01*
X26925Y-7949D01*
X26925Y-7915D01*
X26877Y-7800D01*
X27198Y-7800D01*
X27258Y-7860D01*
X27415Y-7924D01*
X27584Y-7925D01*
X27740Y-7860D01*
X27860Y-7741D01*
X27924Y-7584D01*
X27925Y-7415D01*
X27877Y-7300D01*
X31698Y-7300D01*
X31758Y-7360D01*
X31915Y-7424D01*
X32084Y-7425D01*
X32240Y-7360D01*
X32360Y-7241D01*
X32424Y-7084D01*
X32425Y-6915D01*
X32360Y-6759D01*
X32241Y-6639D01*
X32084Y-6575D01*
X31915Y-6574D01*
X31802Y-6621D01*
X31899Y-6524D01*
X32103Y-6525D01*
X32297Y-6445D01*
X32444Y-6297D01*
X32500Y-6164D01*
X32554Y-6297D01*
X32702Y-6444D01*
X32895Y-6524D01*
X33103Y-6525D01*
X33297Y-6445D01*
X33444Y-6297D01*
X33497Y-6171D01*
X33539Y-6272D01*
X33632Y-6297D01*
X33929Y-6000D01*
X33923Y-5994D01*
X33994Y-5923D01*
X34000Y-5929D01*
X34005Y-5923D01*
X34076Y-5994D01*
X34070Y-6000D01*
X34367Y-6297D01*
X34460Y-6272D01*
X34529Y-6075D01*
X34518Y-5867D01*
X34490Y-5800D01*
X36449Y-5800D01*
X36449Y-5849D01*
X36487Y-5941D01*
X36558Y-6011D01*
X36650Y-6049D01*
X36749Y-6050D01*
X37349Y-6050D01*
X37441Y-6012D01*
X37511Y-5941D01*
X37549Y-5849D01*
X37549Y-5827D01*
X37688Y-5965D01*
X37890Y-6049D01*
X38108Y-6050D01*
X38311Y-5966D01*
X38465Y-5811D01*
X38470Y-5800D01*
X38528Y-5800D01*
X38533Y-5811D01*
X38688Y-5965D01*
X38890Y-6049D01*
X39108Y-6050D01*
X39311Y-5966D01*
X39465Y-5811D01*
X39470Y-5800D01*
X39528Y-5800D01*
X39533Y-5811D01*
X39688Y-5965D01*
X39890Y-6049D01*
X40108Y-6050D01*
X40311Y-5966D01*
X40465Y-5811D01*
X40470Y-5801D01*
X40470Y-8198D01*
X40470Y-8198D01*
G37*
G54D17*
X40470Y-8198D02*
X40466Y-8188D01*
X40311Y-8034D01*
X40109Y-7950D01*
X39891Y-7949D01*
X39688Y-8033D01*
X39534Y-8188D01*
X39500Y-8269D01*
X39466Y-8188D01*
X39311Y-8034D01*
X39109Y-7950D01*
X38891Y-7949D01*
X38688Y-8033D01*
X38534Y-8188D01*
X38500Y-8269D01*
X38466Y-8188D01*
X38311Y-8034D01*
X38109Y-7950D01*
X37891Y-7949D01*
X37688Y-8033D01*
X37534Y-8188D01*
X37500Y-8269D01*
X37466Y-8188D01*
X37311Y-8034D01*
X37109Y-7950D01*
X36891Y-7949D01*
X36688Y-8033D01*
X36534Y-8188D01*
X36500Y-8269D01*
X36466Y-8188D01*
X36311Y-8034D01*
X36109Y-7950D01*
X35891Y-7949D01*
X35688Y-8033D01*
X35534Y-8188D01*
X35500Y-8269D01*
X35466Y-8188D01*
X35311Y-8034D01*
X35109Y-7950D01*
X34891Y-7949D01*
X34688Y-8033D01*
X34534Y-8188D01*
X34500Y-8269D01*
X34466Y-8188D01*
X34311Y-8034D01*
X34297Y-8027D01*
X34297Y-6367D01*
X34000Y-6070D01*
X33702Y-6367D01*
X33727Y-6460D01*
X33924Y-6529D01*
X34132Y-6518D01*
X34272Y-6460D01*
X34297Y-6367D01*
X34297Y-8027D01*
X34109Y-7950D01*
X33891Y-7949D01*
X33688Y-8033D01*
X33534Y-8188D01*
X33500Y-8269D01*
X33466Y-8188D01*
X33311Y-8034D01*
X33109Y-7950D01*
X32891Y-7949D01*
X32688Y-8033D01*
X32534Y-8188D01*
X32500Y-8269D01*
X32466Y-8188D01*
X32311Y-8034D01*
X32109Y-7950D01*
X31891Y-7949D01*
X31688Y-8033D01*
X31534Y-8188D01*
X31500Y-8269D01*
X31466Y-8188D01*
X31311Y-8034D01*
X31109Y-7950D01*
X30891Y-7949D01*
X30688Y-8033D01*
X30534Y-8188D01*
X30500Y-8269D01*
X30466Y-8188D01*
X30311Y-8034D01*
X30109Y-7950D01*
X29891Y-7949D01*
X29688Y-8033D01*
X29534Y-8188D01*
X29500Y-8269D01*
X29466Y-8188D01*
X29311Y-8034D01*
X29109Y-7950D01*
X28891Y-7949D01*
X28688Y-8033D01*
X28534Y-8188D01*
X28500Y-8269D01*
X28466Y-8188D01*
X28311Y-8034D01*
X28109Y-7950D01*
X27891Y-7949D01*
X27688Y-8033D01*
X27534Y-8188D01*
X27500Y-8269D01*
X27466Y-8188D01*
X27311Y-8034D01*
X27109Y-7950D01*
X26925Y-7949D01*
X26925Y-7915D01*
X26877Y-7800D01*
X27198Y-7800D01*
X27258Y-7860D01*
X27415Y-7924D01*
X27584Y-7925D01*
X27740Y-7860D01*
X27860Y-7741D01*
X27924Y-7584D01*
X27925Y-7415D01*
X27877Y-7300D01*
X31698Y-7300D01*
X31758Y-7360D01*
X31915Y-7424D01*
X32084Y-7425D01*
X32240Y-7360D01*
X32360Y-7241D01*
X32424Y-7084D01*
X32425Y-6915D01*
X32360Y-6759D01*
X32241Y-6639D01*
X32084Y-6575D01*
X31915Y-6574D01*
X31802Y-6621D01*
X31899Y-6524D01*
X32103Y-6525D01*
X32297Y-6445D01*
X32444Y-6297D01*
X32500Y-6164D01*
X32554Y-6297D01*
X32702Y-6444D01*
X32895Y-6524D01*
X33103Y-6525D01*
X33297Y-6445D01*
X33444Y-6297D01*
X33497Y-6171D01*
X33539Y-6272D01*
X33632Y-6297D01*
X33929Y-6000D01*
X33923Y-5994D01*
X33994Y-5923D01*
X34000Y-5929D01*
X34005Y-5923D01*
X34076Y-5994D01*
X34070Y-6000D01*
X34367Y-6297D01*
X34460Y-6272D01*
X34529Y-6075D01*
X34518Y-5867D01*
X34490Y-5800D01*
X36449Y-5800D01*
X36449Y-5849D01*
X36487Y-5941D01*
X36558Y-6011D01*
X36650Y-6049D01*
X36749Y-6050D01*
X37349Y-6050D01*
X37441Y-6012D01*
X37511Y-5941D01*
X37549Y-5849D01*
X37549Y-5827D01*
X37688Y-5965D01*
X37890Y-6049D01*
X38108Y-6050D01*
X38311Y-5966D01*
X38465Y-5811D01*
X38470Y-5800D01*
X38528Y-5800D01*
X38533Y-5811D01*
X38688Y-5965D01*
X38890Y-6049D01*
X39108Y-6050D01*
X39311Y-5966D01*
X39465Y-5811D01*
X39470Y-5800D01*
X39528Y-5800D01*
X39533Y-5811D01*
X39688Y-5965D01*
X39890Y-6049D01*
X40108Y-6050D01*
X40311Y-5966D01*
X40465Y-5811D01*
X40470Y-5801D01*
X40470Y-8198D01*
M02*
